<svg width="177" height="120" viewBox="0 0 177 120" fill="none" xmlns="http://www.w3.org/2000/svg">
<rect x="1" y="1" width="175" height="118" rx="9" fill="#5232F8" fill-opacity="0.03" stroke="#E6EDF5" stroke-width="2" stroke-linecap="round" stroke-dasharray="8 10"/>
<path d="M109.158 75H67.7564C66.7528 75 66 74.2437 66 73.2353V46.7647C66 45.7563 66.7528 45 67.7564 45H109.032C110.036 45 110.789 45.7563 110.789 46.7647V73.2353C110.914 74.2437 110.161 75 109.158 75Z" fill="#E6EDF5"/>
<path d="M90.2127 70.9663H71.0176L80.6779 60.126L90.2127 70.9663Z" fill="#CED7E2"/>
<path d="M105.895 70.9664H78.4199L92.2203 55.3362L105.895 70.9664Z" fill="white"/>
<path d="M78.2945 56.0924C80.3039 56.0924 81.9328 54.4558 81.9328 52.437C81.9328 50.4181 80.3039 48.7815 78.2945 48.7815C76.2852 48.7815 74.6562 50.4181 74.6562 52.437C74.6562 54.4558 76.2852 56.0924 78.2945 56.0924Z" fill="#CED7E2"/>
</svg>
