<svg width="407" height="600" viewBox="0 0 407 600" fill="none" xmlns="http://www.w3.org/2000/svg">
<path d="M86.5921 400.658C132.159 446.225 127.705 461.984 125.649 489.05C123.594 515.774 182.179 521.255 162.308 578.813H174.642C174.642 578.813 258.238 563.738 248.302 521.598C238.367 479.115 175.327 528.793 174.299 498.643C173.271 468.494 215.069 431.15 198.282 414.705C181.494 397.917 172.586 453.077 146.891 438.687C121.195 424.298 164.021 386.269 157.512 359.545C151.002 332.822 132.844 362.971 100.296 373.935C70.147 384.213 88.3052 305.071 63.9801 313.979C58.4984 333.85 55.7576 369.823 86.5921 400.658Z" fill="#BDDCFD"/>
<path d="M52.6741 460.272C61.5818 488.023 131.816 503.783 104.065 525.367C76.3139 546.951 101.324 578.813 101.324 578.813H162.308C182.179 521.256 123.593 515.774 125.649 489.051C127.705 461.642 132.159 446.225 86.592 400.658C55.7575 369.824 58.4984 334.193 63.6374 313.979C61.5818 314.664 59.1836 316.035 56.4427 318.433C21.4969 345.841 64.6653 399.631 73.573 412.65C82.4808 424.983 43.7663 432.178 52.6741 460.272Z" fill="#E4ECF4"/>
<path d="M364.788 407.853C320.934 451.706 325.388 466.438 327.444 492.819C329.5 518.514 273.312 523.654 292.498 578.813H280.507C280.507 578.813 200.337 564.424 209.93 523.654C219.523 483.226 279.822 530.506 280.85 501.727C281.877 472.948 241.792 436.974 257.895 421.214C273.997 405.112 282.563 458.216 306.888 444.169C331.555 430.122 290.443 394.148 296.609 368.453C303.119 342.758 320.249 371.536 351.769 382.5C380.89 392.435 363.075 316.72 386.372 324.942C391.511 344.128 394.252 378.389 364.788 407.853Z" fill="#BDDCFD"/>
<path d="M397.336 465.068C388.77 491.791 321.62 506.865 348.343 527.422C375.066 548.321 351.084 578.813 351.084 578.813H292.155C272.97 523.653 329.157 518.514 327.101 492.819C325.046 466.781 320.592 451.706 364.445 407.852C393.91 378.388 391.169 344.128 386.372 324.599C388.428 325.284 390.826 326.655 393.224 328.71C426.8 354.748 385.344 406.825 376.779 418.816C368.557 431.492 405.901 438.344 397.336 465.068Z" fill="#E4ECF4"/>
<path d="M168.132 498.986C173.271 503.783 172.929 515.431 172.586 519.542C174.299 522.283 176.697 527.422 177.725 531.534C179.438 527.765 181.494 523.996 184.235 520.57C186.633 517.487 188.688 514.403 190.059 511.32C190.744 507.551 191.772 504.125 193.485 501.042C195.541 491.791 193.828 484.254 192.115 479.458C187.318 477.059 184.235 474.661 180.466 469.522C176.355 463.698 186.975 454.105 192.115 460.272C196.911 465.753 194.17 477.745 193.828 479.8C195.198 483.911 196.226 490.078 195.541 497.273C195.883 496.588 196.568 496.245 196.911 495.56C202.05 489.393 215.412 498.301 210.273 505.496C206.161 511.663 194.17 513.033 190.401 513.033C189.031 515.774 187.318 518.515 184.92 521.256C176.697 531.534 173.614 543.867 172.929 554.488C174.642 552.775 177.382 551.747 179.781 550.72C183.207 545.238 185.948 541.469 192.115 537.701C198.967 533.589 208.56 546.608 201.365 551.747C195.541 555.859 183.892 553.118 180.123 552.09C177.382 553.118 173.614 554.831 172.586 556.887C172.243 568.878 174.299 578.128 174.299 578.128C174.299 578.471 174.299 579.156 173.614 579.156C173.614 579.156 173.614 579.156 173.271 579.156C172.929 579.156 172.586 578.813 172.586 578.471C172.586 578.128 167.104 555.516 175.327 533.932C176.012 531.534 172.929 524.682 170.53 519.885C164.363 517.829 160.252 515.774 155.456 509.949C151.002 505.153 161.623 493.162 168.132 498.986Z" fill="#E4ECF4"/>
<path d="M280.849 485.281C277.766 491.791 282.22 502.412 283.933 506.18C283.59 509.264 282.905 515.088 283.248 519.199C280.164 516.458 277.081 513.718 273.312 511.319C269.886 509.264 266.803 506.865 264.404 504.81C262.349 501.384 260.293 498.986 257.552 496.587C252.413 488.707 251.385 480.827 251.043 476.031C254.469 472.262 256.867 468.836 258.58 462.669C260.293 455.817 246.931 450.678 244.191 458.215C241.792 465.068 248.302 475.346 249.672 477.059C250.015 481.513 251.043 487.337 254.469 493.846C253.784 493.504 253.098 493.161 252.413 492.819C245.561 488.707 235.968 501.726 243.505 506.865C249.672 510.977 260.978 508.236 264.747 506.865C267.145 508.921 269.543 510.977 272.627 512.69C283.933 519.542 291.128 529.82 295.581 539.413C293.183 538.385 290.1 538.385 287.702 538.385C282.562 534.274 278.794 531.876 271.599 530.848C263.719 529.477 259.265 544.895 267.83 547.293C275.025 549.006 284.618 542.496 287.702 540.098C290.785 540.098 294.896 540.441 296.609 541.811C301.406 552.775 302.434 562.025 302.434 562.368C302.434 562.71 302.776 563.053 303.461 563.053C303.461 563.053 303.461 563.053 303.804 563.053C304.147 563.053 304.489 562.71 304.489 562.025C304.489 561.682 301.748 538.385 286.331 521.255C284.618 519.199 285.303 512.005 285.989 506.18C290.785 502.069 293.868 498.643 296.609 491.791C299.35 484.596 284.961 477.401 280.849 485.281Z" fill="#E4ECF4"/>
<path d="M145.863 578.471C145.177 579.499 42.3956 578.471 42.3956 578.471C42.3956 578.471 24.5801 556.887 54.7295 540.784C71.8598 531.877 42.053 515.431 51.3034 497.616C60.5538 480.143 79.7397 502.412 87.6196 486.995C95.4996 471.578 112.63 436.289 119.482 458.216C126.334 480.143 92.7587 493.505 114.686 509.607C136.955 525.71 164.363 533.932 137.298 540.099C109.889 546.266 160.252 556.544 145.863 578.471Z" fill="#BDDCFD"/>
<path d="M12.9316 517.83C20.4689 518.515 27.3211 527.765 29.7193 531.191C32.8028 532.562 38.2845 534.96 41.3679 537.358C40.3401 533.247 39.6549 529.136 39.6549 524.339C39.6549 521.941 39.3123 519.543 38.9697 517.144C33.488 518.857 29.0341 519.885 21.8394 518.857C13.9594 517.487 14.6446 501.042 23.895 501.727C28.6915 502.07 33.488 506.181 36.5714 509.95C35.5436 507.551 34.8584 505.153 34.1732 502.412C29.7193 493.847 23.5524 488.708 19.4411 486.31C14.302 487.338 10.1908 487.68 4.02386 485.967C-2.82826 483.912 -0.430022 469.522 7.44992 470.893C14.6446 472.263 20.4689 483.569 21.4968 485.282C25.2654 487.68 30.0619 491.792 33.8306 497.958C33.8306 497.273 33.8306 496.588 33.8306 495.56C33.8306 487.338 50.2757 485.967 50.9609 494.875C51.6461 502.412 43.0809 510.978 39.9975 513.718C40.6827 516.802 41.0253 520.228 41.0253 523.654C41.0253 524.682 41.0253 525.71 41.0253 526.395C41.3679 523.654 42.0531 520.913 43.0809 517.487C45.8218 509.95 61.9243 514.061 59.526 522.626C57.4704 529.821 47.1922 534.617 43.4235 536.33C43.4235 536.33 42.7383 541.812 53.0165 557.572C53.3591 555.174 54.7295 552.433 56.1 550.035C55.0722 543.525 55.0722 538.729 57.813 531.876C60.5538 524.339 76.6563 528.45 74.2581 537.016C72.2025 544.21 61.5817 549.349 57.813 551.062C56.4426 553.803 54.3869 557.572 55.0722 559.628C55.0722 559.628 55.0722 559.628 55.0722 559.97C62.2669 569.906 70.1468 575.73 70.1468 575.73C70.4894 576.073 70.4894 576.415 70.1468 576.758C69.8042 577.1 69.4616 577.1 69.119 576.758C68.7764 576.415 49.9331 562.026 42.7383 539.756C42.0531 537.358 35.201 533.932 29.7193 531.876C23.5524 533.932 18.7559 534.96 11.2186 533.932C2.99604 533.589 4.02386 517.144 12.9316 517.83Z" fill="#E4ECF4"/>
<path d="M312.027 129.999C324.018 148.157 338.75 205.715 355.88 195.095C367.872 187.557 350.399 141.648 345.26 119.721L312.027 129.999Z" fill="#FFBDB0"/>
<path d="M354.853 140.277C344.917 93.683 318.194 70.3858 294.554 68.3302C290.785 67.9875 309.286 124.86 317.509 149.528C320.592 149.87 350.056 141.305 354.853 140.277Z" fill="#2B3AC3"/>
<path d="M290.1 176.594C286.331 174.538 275.025 172.483 273.655 168.714C272.285 165.63 273.655 161.519 271.257 159.121C268.516 156.723 264.405 157.065 260.979 157.065C257.21 157.065 253.441 158.778 252.071 162.204C250.358 165.63 251.386 170.084 253.099 173.51C253.441 173.853 253.441 174.538 254.126 174.881C254.469 175.223 255.154 175.566 255.84 175.909C260.979 177.964 266.46 179.335 271.257 182.418C274.34 184.474 280.165 185.844 282.563 188.242C285.646 185.159 291.471 180.705 290.1 176.594Z" fill="#FFB092"/>
<path d="M321.963 572.646L324.018 580.184L314.083 580.869L315.111 573.674L321.963 572.646Z" fill="#FF97A6"/>
<path d="M313.74 578.813C313.74 578.813 316.481 578.128 318.537 579.156C320.592 580.183 323.676 578.128 324.018 577.785C324.361 577.442 326.416 577.785 327.444 581.554C328.472 584.98 345.26 591.147 344.575 598.684C344.232 602.795 316.481 596.628 312.37 589.091C310.314 582.239 313.74 578.813 313.74 578.813Z" fill="#1D2149"/>
<path d="M202.736 572.646L200.68 580.183L210.273 580.869L209.245 573.674L202.736 572.646Z" fill="#FF97A6"/>
<path d="M210.616 578.812C210.616 578.812 207.875 578.127 205.819 579.155C203.763 580.183 200.68 578.127 200.337 577.785C199.995 577.442 197.939 577.785 196.911 581.553C195.883 584.979 179.096 591.146 179.781 598.684C180.124 602.795 207.875 596.628 211.986 589.091C214.384 582.238 210.616 578.812 210.616 578.812Z" fill="#1D2149"/>
<path d="M185.263 245.8C188.689 326.998 198.624 571.276 200.68 573.674C202.393 576.072 206.504 576.758 209.245 576.415C209.93 576.415 210.273 576.072 210.616 575.73C210.616 575.73 210.616 575.73 210.958 575.387C213.356 568.192 239.052 442.799 262.349 357.147C285.646 442.799 311.684 568.192 313.74 575.387C313.74 575.73 313.74 575.73 314.083 575.73H314.425C316.823 576.758 321.962 576.415 324.361 573.674C326.074 571.276 327.787 335.906 328.472 245.8H185.263Z" fill="#1D2149"/>
<path d="M324.361 261.218C295.925 277.32 214.384 284.857 182.865 261.218C170.531 210.854 170.873 140.963 190.059 90.9423C215.412 57.7096 315.796 40.2367 321.62 111.156C324.018 156.037 350.056 234.837 324.361 261.218Z" fill="#2F40EA"/>
<path opacity="0.2" d="M226.375 267.385C226.375 265.329 226.718 262.588 227.746 260.533C228.774 258.134 230.487 256.764 232.2 255.051C234.598 252.995 236.311 250.254 236.311 246.828C236.311 244.43 235.283 242.032 235.283 239.291C235.283 235.522 236.996 232.096 238.709 229.013C240.765 225.929 243.163 222.846 245.219 219.762C246.247 218.392 248.645 214.966 247.617 213.253C246.932 212.225 244.876 211.882 243.848 211.54C241.45 211.197 238.709 211.197 236.311 211.197C231.172 211.197 225.69 211.197 220.551 210.512C210.958 209.484 198.624 206.743 195.541 196.465C192.115 185.502 198.967 174.538 201.708 164.26C203.421 158.093 202.736 151.926 204.791 146.102C206.847 140.62 210.273 135.824 214.042 131.37C217.81 126.916 221.922 122.805 225.005 117.666C227.746 112.527 229.802 107.045 230.487 101.221C232.2 90.2573 230.829 78.6087 226.375 68.3306C210.958 73.4697 197.939 81.6922 190.744 91.2852C171.901 140.963 171.216 211.197 183.55 261.56C194.17 269.783 210.958 274.237 229.116 275.95C227.061 272.866 226.375 270.125 226.375 267.385Z" fill="#1A2326"/>
<path opacity="0.1" d="M314.083 575.73C313.74 575.73 313.74 575.387 313.74 575.387C311.342 568.193 285.646 442.799 262.349 357.147C239.052 442.799 213.014 568.193 210.958 575.387C210.958 575.73 210.958 575.73 210.616 575.73C210.273 576.072 209.588 576.072 209.245 576.415C210.616 569.22 237.681 437.66 244.534 390.037C251.386 343.786 222.949 294.108 221.579 291.024C223.292 292.395 242.478 305.071 244.876 308.497C250.7 316.377 261.664 315.692 269.201 314.664C273.998 313.979 276.396 335.906 281.535 327.683C288.387 316.377 268.859 256.421 301.064 279.376C300.721 281.089 277.081 372.222 284.618 407.168C291.471 440.058 323.333 543.867 314.083 575.73Z" fill="black"/>
<path d="M266.803 69.358C266.803 71.7562 262.006 74.1545 256.182 74.1545C250.358 74.1545 245.561 72.0989 245.561 69.358C245.561 66.9598 250.358 64.5615 256.182 64.5615C262.006 64.5615 266.803 66.6172 266.803 69.358Z" fill="#1D2149"/>
<path d="M272.627 32.0139C272.627 32.0139 277.423 28.2452 279.822 32.6991C282.22 37.153 276.738 43.6625 272.627 43.3199V32.0139Z" fill="#FFBDB0"/>
<path opacity="0.1" d="M272.627 34.4121C273.655 33.7269 275.71 33.0417 276.738 35.44C278.109 38.1808 275.368 42.2921 272.627 42.9773V34.4121Z" fill="#231F20"/>
<path d="M240.765 32.0139C240.765 32.0139 235.968 28.2452 233.57 32.6991C231.172 37.153 236.653 43.6625 240.765 43.3199V32.0139Z" fill="#FFBDB0"/>
<path opacity="0.1" d="M240.765 42.6345C238.024 42.2919 234.94 38.1806 236.653 35.0972C237.681 33.0416 239.737 33.7268 240.765 34.0694V42.6345Z" fill="#231F20"/>
<path d="M276.396 13.5133C279.479 17.6246 279.136 25.5045 273.997 33.7271C268.858 41.9496 239.052 36.4679 239.052 36.4679C239.052 36.4679 227.746 16.9394 240.079 11.8003C240.079 11.8003 239.737 -1.56135 253.098 0.151684C266.117 1.86471 272.284 8.03162 276.396 13.5133Z" fill="#1D2149"/>
<path d="M263.377 67.645C263.377 67.645 260.636 71.7563 256.182 71.7563C251.385 71.7563 248.302 67.9876 248.302 67.9876C248.302 67.9876 248.302 63.8764 248.645 60.4503C248.645 58.0521 248.645 55.9964 248.645 55.6538H263.377V61.4781V64.219V67.645Z" fill="#FFBDB0"/>
<path opacity="0.1" d="M263.377 61.4784C260.978 63.5341 258.58 64.5619 256.524 64.5619C254.126 64.5619 251.043 62.8489 248.302 60.108C248.302 57.7098 248.302 55.6541 248.302 55.3115H263.034L263.377 61.4784Z" fill="#231F20"/>
<path d="M272.97 19.6803C271.942 12.143 241.45 12.143 240.422 19.6803C240.422 19.6803 238.024 46.4036 241.45 51.2001C245.218 55.9966 252.071 61.4783 256.867 61.4783C261.321 61.4783 268.516 55.9966 272.284 51.2001C275.71 46.4036 272.97 19.6803 272.97 19.6803Z" fill="#FFBDB0"/>
<path opacity="0.1" d="M243.163 22.421C244.191 22.421 245.218 22.421 246.246 22.0784C246.931 21.7358 247.617 21.0506 248.644 21.0506C250.015 20.3654 250.7 21.0506 251.728 22.0784C253.098 23.1062 254.811 23.7915 256.524 24.1341C260.293 24.8193 264.062 25.1619 267.83 24.8193C269.886 24.4767 271.942 24.1341 273.655 23.4489C273.655 21.7358 273.312 20.3654 273.312 20.3654C272.284 12.8281 241.792 12.8281 240.764 20.3654C240.764 20.3654 240.764 21.0506 240.422 22.421C241.107 22.0784 242.135 22.421 243.163 22.421Z" fill="#231F20"/>
<path opacity="0.1" d="M249.672 39.8945C249.672 41.6075 248.302 42.9779 246.589 42.9779C244.876 42.9779 243.505 41.6075 243.505 39.8945C243.505 38.1815 244.876 36.811 246.589 36.811C248.302 36.811 249.672 38.1815 249.672 39.8945Z" fill="#231F20"/>
<path opacity="0.1" d="M270.914 39.8945C270.914 41.6075 269.544 42.9779 267.831 42.9779C266.118 42.9779 264.747 41.6075 264.747 39.8945C264.747 38.1815 266.118 36.811 267.831 36.811C269.544 36.811 270.914 38.1815 270.914 39.8945Z" fill="#231F20"/>
<path d="M265.432 10.4301C260.293 9.40224 252.756 11.8005 247.96 13.5135C246.589 13.1709 243.848 13.1709 241.45 14.1987C237.681 16.2544 235.283 22.0787 239.737 22.0787C242.135 22.0787 244.876 19.3378 246.932 17.2822C253.784 20.023 267.146 24.4769 273.655 22.7639C282.22 20.3656 273.655 12.1431 265.432 10.4301Z" fill="#1D2149"/>
<path d="M253.099 52.2279C253.099 52.2279 259.266 51.5427 262.349 52.2279C262.007 52.2279 257.553 57.367 253.099 52.2279Z" fill="white"/>
<path d="M262.349 29.2733C262.349 29.2733 269.544 29.9585 270.229 29.2733C270.914 28.5881 268.859 26.875 265.775 27.2177C262.692 27.5603 261.664 28.9307 262.349 29.2733Z" fill="#1D2149"/>
<path d="M268.516 33.042C268.516 34.0698 267.831 35.0976 266.803 35.0976C265.775 35.0976 265.09 34.0698 265.09 33.042C265.09 32.0141 265.775 30.9863 266.803 30.9863C267.146 30.9863 267.488 30.9863 267.488 31.3289C267.146 31.3289 266.803 31.6715 266.803 32.3568C266.803 33.042 267.146 33.3846 267.488 33.3846C267.831 33.3846 268.173 33.042 268.173 32.6994C268.516 32.6994 268.516 33.042 268.516 33.042Z" fill="#1D2149"/>
<path d="M243.163 29.2733C243.163 29.2733 250.358 29.9585 251.043 29.2733C251.728 28.5881 249.673 26.875 246.589 27.2177C243.506 27.5603 242.478 28.9307 243.163 29.2733Z" fill="#1D2149"/>
<path d="M249.33 33.042C249.33 34.0698 248.645 35.0976 247.617 35.0976C246.589 35.0976 245.904 34.0698 245.904 33.042C245.904 32.0141 246.589 30.9863 247.617 30.9863C247.96 30.9863 248.302 30.9863 248.302 31.3289C247.96 31.3289 247.617 31.6715 247.617 32.3568C247.617 33.042 247.96 33.3846 248.302 33.3846C248.645 33.3846 248.988 33.042 248.988 32.6994L249.33 33.042Z" fill="#1D2149"/>
<path d="M322.648 74.8399C300.721 59.08 269.886 64.5617 254.126 86.4885C241.793 103.961 242.478 126.231 253.784 142.676L171.558 259.505L184.92 269.097L195.883 253.68L208.217 262.245L220.208 245.115L214.384 241.004L223.977 227.642L229.801 231.753L241.107 215.994L235.283 211.882L244.876 198.521L250.7 202.632L262.006 186.529L256.182 182.418L265.775 169.057L271.599 173.168L279.822 161.519C299.693 168.029 322.305 161.177 334.981 143.361C350.056 121.092 344.917 90.2572 322.648 74.8399ZM297.98 135.139C292.841 136.166 287.017 135.139 282.563 131.712C277.081 127.601 273.998 121.434 273.998 114.925C273.998 110.814 275.025 106.702 277.766 103.276C284.276 94.0258 297.295 91.6276 306.545 98.4797C315.796 104.989 317.851 118.008 311.342 127.259C307.916 131.37 303.119 134.111 297.98 135.139Z" fill="#E4ECF4"/>
<path d="M272.285 165.288C268.859 163.232 257.553 160.491 256.182 156.38C255.154 153.296 256.525 149.185 254.469 146.787C252.071 144.046 248.302 141.305 246.589 146.787C242.821 146.787 236.654 145.417 234.941 148.5C232.885 151.926 233.913 156.38 235.283 159.806C235.626 160.491 235.626 160.834 235.969 161.176C236.311 161.519 236.996 161.862 237.682 162.204C242.821 164.602 248.302 166.315 252.756 169.742C255.497 171.797 261.321 173.51 263.72 176.251C267.488 173.51 273.313 169.742 272.285 165.288Z" fill="#FFBDB0"/>
<path d="M338.408 162.204C328.129 158.436 266.118 158.093 254.127 155.01C249.33 159.464 251.728 161.177 248.302 166.658C261.664 180.705 331.556 208.799 353.825 200.234C366.159 190.298 357.251 169.057 338.408 162.204Z" fill="#FFBDB0"/>
<path d="M221.236 194.41C225.348 194.067 236.654 196.123 239.395 193.039C241.793 190.641 241.793 186.187 244.876 184.817C248.302 183.446 252.756 182.418 251.728 188.243C255.154 189.613 261.321 191.326 261.664 194.752C262.007 198.521 259.266 202.29 256.525 205.03C256.182 205.373 255.84 205.716 255.154 206.058C254.469 206.401 253.784 206.401 253.099 206.401C247.617 206.401 241.793 205.716 236.311 206.743C232.885 207.429 226.718 206.743 223.635 208.114C222.264 204.003 218.496 198.178 221.236 194.41Z" fill="#FFBDB0"/>
<path d="M240.422 194.409C223.292 189.27 191.772 167.344 191.772 167.344C191.772 167.344 179.438 148.843 194.513 113.212C188.003 113.212 185.263 112.869 178.753 113.212C162.651 146.102 162.308 173.168 165.391 182.076C177.725 219.077 236.654 214.281 246.589 206.058C247.617 203.317 245.561 198.863 240.422 194.409Z" fill="#FFBDB0"/>
<path d="M188.689 151.584C193.143 136.509 204.106 90.9426 222.949 68.3306C199.652 70.3862 170.531 103.276 159.567 144.389C166.419 144.732 182.179 151.584 188.689 151.584Z" fill="#2B3AC3"/>
<g opacity="0.9">
<path opacity="0.9" d="M228.088 35.7825V91.2847C226.375 101.563 217.468 109.443 206.847 109.443H25.6082C22.1821 109.443 19.0986 108.758 16.3578 107.387C9.50568 103.961 4.7092 97.109 4.36659 89.229V88.8864V35.7825C4.36659 28.9304 8.47786 23.1061 14.3022 20.0226C16.7004 18.9948 19.0986 18.3096 22.1821 18.3096H211.301C220.208 18.3096 228.088 25.8469 228.088 35.7825Z" fill="url(#paint0_linear_168:1194)"/>
<path opacity="0.9" d="M63.6374 85.8027H25.2655V87.8584H63.6374V85.8027Z" fill="white"/>
<path opacity="0.9" d="M112.63 85.8027H74.2583V87.8584H112.63V85.8027Z" fill="white"/>
<path opacity="0.9" d="M161.28 85.8027H122.908V87.8584H161.28V85.8027Z" fill="white"/>
<path opacity="0.9" d="M209.93 85.8027H171.558V87.8584H209.93V85.8027Z" fill="white"/>
<g opacity="0.9">
<path opacity="0.9" d="M50.6183 47.7737L45.4792 54.6259L53.7017 53.598V57.3667L45.4792 56.3389L50.9609 62.8484L47.5348 64.904L44.1088 57.0241L40.3401 64.904L37.2566 62.8484L42.3957 55.9963L34.1732 57.0241V53.2554L42.3957 54.2832L37.2566 47.4311L40.6827 45.3755L44.1088 53.2554L47.5348 45.3755L50.6183 47.7737Z" fill="white"/>
</g>
<g opacity="0.9">
<path opacity="0.9" d="M98.926 47.7737L93.7869 54.6259L102.009 53.598V57.3667L93.7869 56.3389L99.2686 62.8484L95.8425 64.904L92.4165 57.0241L88.6478 64.904L85.5643 62.8484L90.7034 55.9963L82.4809 57.0241V53.2554L90.7034 54.2832L85.5643 47.4311L88.9904 45.3755L92.4165 53.2554L95.8425 45.3755L98.926 47.7737Z" fill="white"/>
</g>
<g opacity="0.9">
<path opacity="0.9" d="M147.233 47.7739L142.094 54.626L150.317 53.5982V57.3669L142.094 56.3391L147.576 62.8486L144.15 64.9042L140.724 57.0243L136.955 64.9042L133.872 62.8486L139.011 55.9964L130.446 57.3669V53.5982L138.668 54.626L133.529 47.7739L136.955 45.7183L140.381 53.5982L143.807 45.7183L147.233 47.7739Z" fill="white"/>
</g>
</g>
<path d="M372.326 39.2085H364.788V31.6712C364.788 30.986 364.103 30.3008 363.418 30.3008C362.733 30.3008 362.047 30.986 362.047 31.6712V39.2085H354.51C353.825 39.2085 353.14 39.8937 353.14 40.579C353.14 40.9216 353.14 41.2642 353.482 41.6068C353.825 41.9494 354.167 41.9494 354.51 41.9494H362.047V49.4867C362.047 49.8293 362.047 50.1719 362.39 50.5145C362.733 50.8571 363.075 50.8571 363.418 50.8571C364.103 50.8571 364.788 50.1719 364.788 49.4867V41.9494H372.326C373.011 41.9494 373.696 41.2642 373.696 40.579C373.696 39.8937 373.011 39.2085 372.326 39.2085Z" fill="#BDDCFD"/>
<path d="M107.148 268.069C100.639 268.069 95.1572 262.587 95.1572 256.078C95.1572 249.568 100.639 244.086 107.148 244.086C113.658 244.086 119.14 249.568 119.14 256.078C119.14 262.93 113.658 268.069 107.148 268.069ZM107.148 248.883C103.037 248.883 99.9537 252.309 99.9537 256.078C99.9537 260.189 103.38 263.272 107.148 263.272C111.26 263.272 114.343 259.846 114.343 256.078C114.343 252.309 111.26 248.883 107.148 248.883Z" fill="#BDDCFD"/>
<defs>
<linearGradient id="paint0_linear_168:1194" x1="4.01405" y1="63.6799" x2="228.178" y2="63.6799" gradientUnits="userSpaceOnUse">
<stop stop-color="#BDDCFD"/>
<stop offset="1" stop-color="#5F98ED"/>
</linearGradient>
</defs>
</svg>
