<svg width="407" height="601" viewBox="0 0 407 601" fill="none" xmlns="http://www.w3.org/2000/svg">
<path d="M86.5918 421.658C132.158 467.225 127.705 482.984 125.649 510.05C123.593 536.774 182.179 542.255 162.308 599.813H174.642C174.642 599.813 258.237 584.738 248.302 542.598C238.366 500.115 175.327 549.793 174.299 519.643C173.271 489.494 215.069 452.15 198.281 435.705C181.494 418.917 172.586 474.077 146.89 459.687C121.195 445.298 164.021 407.269 157.511 380.545C151.002 353.822 132.844 383.971 100.296 394.935C70.1467 405.213 88.3049 326.071 63.9798 334.979C58.4981 354.85 55.7573 390.823 86.5918 421.658Z" fill="#BDDCFD"/>
<path d="M52.6739 481.272C61.5816 509.023 131.816 524.783 104.065 546.367C76.3137 567.951 101.324 599.813 101.324 599.813H162.308C182.179 542.256 123.593 536.774 125.649 510.051C127.705 482.642 132.158 467.225 86.5919 421.658C55.7573 390.824 58.4982 355.193 63.6373 334.979C61.5816 335.664 59.1834 337.035 56.4425 339.433C21.4967 366.841 64.6651 420.631 73.5728 433.65C82.4806 445.983 43.7661 453.178 52.6739 481.272Z" fill="#E4ECF4"/>
<path d="M364.788 428.853C320.935 472.706 325.389 487.438 327.444 513.819C329.5 539.514 273.312 544.654 292.498 599.813H280.507C280.507 599.813 200.337 585.424 209.93 544.654C219.523 504.226 279.822 551.506 280.85 522.727C281.878 493.948 241.793 457.974 257.895 442.214C273.998 426.112 282.563 479.216 306.888 465.169C331.555 451.122 290.443 415.148 296.61 389.453C303.119 363.758 320.249 392.536 351.769 403.5C380.891 413.435 363.075 337.72 386.372 345.942C391.511 365.128 394.252 399.389 364.788 428.853Z" fill="#BDDCFD"/>
<path d="M397.336 486.068C388.77 512.791 321.62 527.865 348.343 548.422C375.066 569.321 351.084 599.813 351.084 599.813H292.156C272.97 544.653 329.157 539.514 327.101 513.819C325.046 487.781 320.592 472.706 364.445 428.852C393.91 399.388 391.169 365.128 386.372 345.599C388.428 346.284 390.826 347.655 393.224 349.71C426.8 375.748 385.344 427.825 376.779 439.816C368.557 452.492 405.901 459.344 397.336 486.068Z" fill="#E4ECF4"/>
<path d="M168.132 519.986C173.271 524.783 172.929 536.431 172.586 540.542C174.299 543.283 176.697 548.422 177.725 552.534C179.438 548.765 181.494 544.996 184.235 541.57C186.633 538.487 188.688 535.403 190.059 532.32C190.744 528.551 191.772 525.125 193.485 522.042C195.541 512.791 193.827 505.254 192.114 500.458C187.318 498.059 184.235 495.661 180.466 490.522C176.355 484.698 186.975 475.105 192.114 481.272C196.911 486.753 194.17 498.745 193.827 500.8C195.198 504.911 196.226 511.078 195.541 518.273C195.883 517.588 196.568 517.245 196.911 516.56C202.05 510.393 215.412 519.301 210.273 526.496C206.161 532.663 194.17 534.033 190.401 534.033C189.031 536.774 187.318 539.515 184.92 542.256C176.697 552.534 173.614 564.867 172.929 575.488C174.642 573.775 177.382 572.747 179.781 571.72C183.207 566.238 185.948 562.469 192.114 558.701C198.967 554.589 208.56 567.608 201.365 572.747C195.541 576.859 183.892 574.118 180.123 573.09C177.382 574.118 173.614 575.831 172.586 577.887C172.243 589.878 174.299 599.128 174.299 599.128C174.299 599.471 174.299 600.156 173.614 600.156C173.614 600.156 173.614 600.156 173.271 600.156C172.929 600.156 172.586 599.813 172.586 599.471C172.586 599.128 167.104 576.516 175.327 554.932C176.012 552.534 172.929 545.682 170.53 540.885C164.363 538.829 160.252 536.774 155.456 530.949C151.002 526.153 161.623 514.162 168.132 519.986Z" fill="#E4ECF4"/>
<path d="M280.849 506.281C277.766 512.791 282.22 523.412 283.933 527.18C283.59 530.264 282.905 536.088 283.248 540.199C280.164 537.458 277.081 534.718 273.312 532.319C269.886 530.264 266.803 527.865 264.404 525.81C262.349 522.384 260.293 519.986 257.552 517.587C252.413 509.707 251.385 501.827 251.043 497.031C254.469 493.262 256.867 489.836 258.58 483.669C260.293 476.817 246.931 471.678 244.191 479.215C241.792 486.068 248.302 496.346 249.672 498.059C250.015 502.513 251.043 508.337 254.469 514.846C253.784 514.504 253.098 514.161 252.413 513.819C245.561 509.707 235.968 522.726 243.505 527.865C249.672 531.977 260.978 529.236 264.747 527.865C267.145 529.921 269.543 531.977 272.627 533.69C283.933 540.542 291.128 550.82 295.581 560.413C293.183 559.385 290.1 559.385 287.702 559.385C282.562 555.274 278.794 552.876 271.599 551.848C263.719 550.477 259.265 565.895 267.83 568.293C275.025 570.006 284.618 563.496 287.702 561.098C290.785 561.098 294.896 561.441 296.609 562.811C301.406 573.775 302.434 583.025 302.434 583.368C302.434 583.71 302.776 584.053 303.461 584.053C303.461 584.053 303.461 584.053 303.804 584.053C304.147 584.053 304.489 583.71 304.489 583.025C304.489 582.682 301.748 559.385 286.331 542.255C284.618 540.199 285.303 533.005 285.989 527.18C290.785 523.069 293.868 519.643 296.609 512.791C299.35 505.596 284.961 498.401 280.849 506.281Z" fill="#E4ECF4"/>
<path d="M145.863 599.471C145.177 600.499 42.3956 599.471 42.3956 599.471C42.3956 599.471 24.5801 577.887 54.7294 561.784C71.8597 552.877 42.053 536.431 51.3033 518.616C60.5537 501.143 79.7396 523.412 87.6196 507.995C95.4995 492.578 112.63 457.289 119.482 479.216C126.334 501.143 92.7587 514.505 114.685 530.607C136.955 546.71 164.363 554.932 137.297 561.099C109.889 567.266 160.252 577.544 145.863 599.471Z" fill="#BDDCFD"/>
<path d="M12.9316 538.83C20.4689 539.515 27.3211 548.765 29.7193 552.191C32.8028 553.562 38.2845 555.96 41.3679 558.358C40.3401 554.247 39.6549 550.136 39.6549 545.339C39.6549 542.941 39.3123 540.543 38.9697 538.144C33.488 539.857 29.0341 540.885 21.8394 539.857C13.9594 538.487 14.6446 522.042 23.895 522.727C28.6915 523.07 33.488 527.181 36.5714 530.95C35.5436 528.551 34.8584 526.153 34.1732 523.412C29.7193 514.847 23.5524 509.708 19.4411 507.31C14.302 508.338 10.1908 508.68 4.02386 506.967C-2.82826 504.912 -0.430022 490.522 7.44992 491.893C14.6446 493.263 20.4689 504.569 21.4968 506.282C25.2654 508.68 30.0619 512.792 33.8306 518.958C33.8306 518.273 33.8306 517.588 33.8306 516.56C33.8306 508.338 50.2757 506.967 50.9609 515.875C51.6461 523.412 43.0809 531.978 39.9975 534.718C40.6827 537.802 41.0253 541.228 41.0253 544.654C41.0253 545.682 41.0253 546.71 41.0253 547.395C41.3679 544.654 42.0531 541.913 43.0809 538.487C45.8218 530.95 61.9243 535.061 59.526 543.626C57.4704 550.821 47.1922 555.617 43.4235 557.33C43.4235 557.33 42.7383 562.812 53.0165 578.572C53.3591 576.174 54.7295 573.433 56.1 571.035C55.0722 564.525 55.0722 559.729 57.813 552.876C60.5538 545.339 76.6563 549.45 74.2581 558.016C72.2025 565.21 61.5817 570.349 57.813 572.062C56.4426 574.803 54.3869 578.572 55.0722 580.628C55.0722 580.628 55.0722 580.628 55.0722 580.97C62.2669 590.906 70.1468 596.73 70.1468 596.73C70.4894 597.073 70.4894 597.415 70.1468 597.758C69.8042 598.1 69.4616 598.1 69.119 597.758C68.7764 597.415 49.9331 583.026 42.7383 560.756C42.0531 558.358 35.201 554.932 29.7193 552.876C23.5524 554.932 18.7559 555.96 11.2186 554.932C2.99604 554.589 4.02386 538.144 12.9316 538.83Z" fill="#E4ECF4"/>
<path d="M372.326 60.2085H364.788V52.6712C364.788 51.986 364.103 51.3008 363.418 51.3008C362.733 51.3008 362.047 51.986 362.047 52.6712V60.2085H354.51C353.825 60.2085 353.14 60.8937 353.14 61.579C353.14 61.9216 353.14 62.2642 353.482 62.6068C353.825 62.9494 354.167 62.9494 354.51 62.9494H362.047V70.4867C362.047 70.8293 362.047 71.1719 362.39 71.5145C362.733 71.8571 363.075 71.8571 363.418 71.8571C364.103 71.8571 364.788 71.1719 364.788 70.4867V62.9494H372.326C373.011 62.9494 373.696 62.2642 373.696 61.579C373.696 60.8937 373.011 60.2085 372.326 60.2085Z" fill="#BDDCFD"/>
<path d="M107.148 289.069C100.639 289.069 95.1572 283.587 95.1572 277.078C95.1572 270.568 100.639 265.086 107.148 265.086C113.658 265.086 119.14 270.568 119.14 277.078C119.14 283.93 113.658 289.069 107.148 289.069ZM107.148 269.883C103.037 269.883 99.9537 273.309 99.9537 277.078C99.9537 281.189 103.38 284.272 107.148 284.272C111.26 284.272 114.343 280.846 114.343 277.078C114.343 273.309 111.26 269.883 107.148 269.883Z" fill="#BDDCFD"/>
<path d="M173.792 575.614L174.242 586.398H180.533L182.33 574.715L173.792 575.614Z" fill="#E9AA8E"/>
<path d="M173.792 581.454C173.343 582.802 174.242 586.397 174.242 586.397L180.982 585.948C180.982 585.948 182.33 581.005 181.431 581.005C177.836 580.556 174.691 580.106 173.792 581.454Z" fill="#FAD1DE"/>
<path d="M180.083 593.139C178.286 594.487 163.457 602.126 161.66 599.43C160.312 596.733 160.312 592.24 168.4 587.747C171.995 585.949 172.894 580.557 172.894 582.354C172.894 584.152 176.488 586.848 179.634 585.5C181.431 585.05 181.431 586.848 180.982 589.095C181.431 590.892 180.982 592.24 180.083 593.139Z" fill="#202234"/>
<path d="M252.877 575.614L252.428 586.398H246.137L244.34 574.715L252.877 575.614Z" fill="#E9AA8E"/>
<path d="M252.877 581.454C253.327 582.802 252.428 586.397 252.428 586.397L245.688 585.948C245.688 585.948 244.34 581.005 245.239 581.005C248.833 580.556 251.979 580.106 252.877 581.454Z" fill="#FAD1DE"/>
<path d="M246.586 593.139C248.384 594.487 263.212 602.126 265.009 599.43C266.358 596.733 266.358 592.24 258.269 587.747C255.124 585.949 253.776 580.557 253.776 582.354C253.776 584.152 250.181 586.848 247.036 585.5C245.238 585.05 245.238 586.848 245.688 589.095C245.238 590.892 245.688 592.24 246.586 593.139Z" fill="#202234"/>
<path d="M240.745 136.153C240.745 136.153 279.388 163.114 298.261 207.149C318.032 253.432 274.895 239.952 260.965 224.225C260.965 224.225 248.384 210.295 244.339 198.163C239.846 186.48 241.194 141.545 240.745 136.153Z" fill="#2B3AC3"/>
<path d="M299.609 117.73C299.159 118.629 299.159 119.527 298.71 120.426C297.362 123.122 296.014 124.47 296.014 124.47L296.463 145.589C292.419 146.488 287.027 145.589 286.128 145.589C286.128 145.589 287.476 126.268 285.23 123.572C284.331 123.122 283.882 122.223 283.432 120.426C282.983 119.527 282.534 118.179 282.534 117.281C282.084 114.585 275.793 111.889 276.243 110.54C277.141 109.192 281.185 109.642 282.534 111.439C283.882 113.237 285.23 111.889 285.23 110.091C285.23 106.946 282.534 92.1173 284.331 92.1173C286.578 91.668 289.274 106.496 289.274 106.496C289.274 106.496 288.824 89.4212 291.071 90.3199C293.318 91.2186 293.318 106.946 293.318 106.946C293.318 106.946 294.217 94.364 296.014 94.364C298.261 93.9147 297.811 108.294 297.811 108.294C297.811 108.294 299.609 99.7562 301.406 99.3068C303.653 97.9588 300.507 113.686 299.609 117.73Z" fill="#E9AA8E"/>
<path opacity="0.1" d="M287.476 124.919C288.824 125.818 290.173 125.818 291.521 125.818C292.869 125.818 294.217 124.919 295.565 124.021C296.014 123.571 296.014 123.571 296.463 123.122L296.014 123.571C293.767 124.919 291.071 123.571 291.071 123.571C290.622 124.021 287.926 124.021 286.128 123.571C286.578 124.021 287.027 124.47 287.476 124.919Z" fill="#231F20"/>
<path opacity="0.2" d="M299.609 117.73C299.159 118.628 299.159 119.527 298.71 120.426C297.811 121.774 296.913 123.122 296.014 123.571C293.767 124.919 291.071 123.571 291.071 123.571C290.622 124.021 287.027 124.021 285.23 123.122C284.331 122.672 283.882 121.774 283.432 119.976C282.983 119.078 282.534 117.73 282.534 116.831C282.084 114.135 275.793 111.439 276.243 110.091C277.141 108.743 281.185 109.192 282.534 110.989C283.882 112.787 285.23 111.439 285.23 109.641C285.23 106.496 282.534 91.6676 284.331 91.6676C286.578 91.2182 289.274 106.047 289.274 106.047C289.274 106.047 288.824 88.9715 291.071 89.8702C293.318 90.7689 293.318 106.496 293.318 106.496C293.318 106.496 294.217 93.9143 296.014 93.9143C298.261 93.465 297.811 107.844 297.811 107.844C297.811 107.844 299.609 99.3065 301.406 98.8571C303.653 97.9584 300.507 113.686 299.609 117.73Z" fill="#FFBDB0"/>
<path opacity="0.1" d="M299.159 107.843C298.261 107.393 297.362 107.393 296.463 106.944C295.565 106.495 294.666 106.495 293.767 106.495C292.868 106.495 291.97 106.495 291.071 106.495C290.172 106.495 289.274 106.495 288.375 106.495C289.274 106.045 290.172 106.045 291.071 106.045C291.97 106.045 292.868 106.045 293.767 106.045C294.666 106.045 295.565 106.495 296.463 106.495C297.362 106.944 298.261 107.393 299.159 107.843Z" fill="#231F20"/>
<path d="M273.547 211.194L284.781 129.862H296.913C296.913 129.862 327.019 226.472 299.609 237.256C271.75 247.591 273.547 211.194 273.547 211.194Z" fill="#2B3AC3"/>
<g opacity="0.15">
<path opacity="0.15" d="M307.697 181.088C307.697 183.335 307.697 185.582 307.697 187.829C307.697 190.075 307.697 192.322 307.697 194.569C307.697 196.366 307.248 198.613 306.799 200.41C305.9 204.454 305.001 208.948 302.305 212.093C300.957 213.891 299.16 215.239 297.362 215.688C295.116 216.587 292.869 217.485 290.622 217.935C288.375 218.384 286.129 218.833 283.433 218.384C281.186 217.935 279.388 217.036 278.04 215.239C276.243 213.441 274.895 211.195 273.547 208.948V211.195C273.547 211.195 271.75 247.592 299.609 236.807C313.988 231.415 312.64 203.106 308.596 177.494C308.147 178.392 307.697 179.74 307.697 181.088Z" fill="#073D6C"/>
</g>
<path d="M171.546 136.153C171.546 136.153 107.289 174.347 107.289 221.978C107.289 264.666 194.462 256.578 194.462 256.578L197.608 251.635C197.608 251.635 160.761 235.458 150.876 223.775C150.876 223.775 163.457 209.846 167.501 197.713C172.444 186.48 171.096 141.545 171.546 136.153Z" fill="#2B3AC3"/>
<path d="M219.176 300.613C219.176 300.613 192.215 549.551 182.33 578.758H172.893C172.893 578.758 127.509 339.257 146.831 303.758C166.153 268.26 219.176 300.613 219.176 300.613Z" fill="#28264A"/>
<path opacity="0.5" d="M151.325 347.795C156.268 345.997 162.109 346.447 166.603 349.592C169.299 351.39 171.096 353.636 172.444 356.332C173.792 359.028 174.242 362.174 174.691 364.87C176.039 371.161 180.532 376.553 184.127 381.945C185.925 384.641 187.273 387.787 187.722 391.381C187.722 394.976 186.374 398.122 184.576 401.267C181.88 405.76 177.836 410.254 177.836 416.095C177.836 423.285 183.228 428.677 185.026 434.968C185.925 438.113 185.475 441.708 184.576 445.303C183.678 448.898 183.228 452.492 184.127 456.087C185.026 463.277 187.273 470.466 185.475 477.656C185.026 478.554 184.127 479.004 183.678 478.554C183.228 479.903 182.779 480.801 182.33 482.149C180.982 486.643 180.532 490.687 181.431 495.18C181.88 499.224 183.228 502.819 183.678 506.863C184.127 510.458 184.127 514.502 184.576 518.097C184.576 526.185 184.576 534.723 184.576 542.811C184.576 550 184.127 557.19 184.127 564.38C184.127 567.076 184.127 569.772 184.576 572.468C195.361 523.489 219.625 301.063 219.625 301.063C219.625 301.063 166.603 268.71 147.281 304.208C142.787 312.296 141.889 331.169 142.787 355.434C144.585 351.839 147.281 349.143 151.325 347.795Z" fill="#202234"/>
<path d="M200.753 295.221C200.753 295.221 227.265 545.507 243.441 576.961H253.776C253.776 576.961 285.23 345.099 256.922 292.975C257.371 292.975 242.093 276.798 200.753 295.221Z" fill="#28264A"/>
<path opacity="0.5" d="M239.846 556.29C239.846 550.448 239.397 544.607 238.049 539.215C237.15 533.822 235.802 528.43 235.353 523.038C234.903 516.747 235.353 510.456 235.353 504.166C235.353 497.875 235.353 492.033 234.454 485.742C233.555 479.452 232.657 473.61 231.309 467.769C229.961 461.927 228.613 456.535 228.613 450.693C228.613 444.852 229.961 438.561 230.41 432.72C230.859 427.327 229.961 421.486 230.41 416.094C230.859 412.05 232.207 408.006 233.555 403.961C234.903 400.367 236.251 396.323 235.802 392.278C235.353 385.089 233.106 378.349 231.309 371.159C229.961 365.318 228.613 357.679 232.207 352.287C237.599 344.198 248.833 346.445 257.371 346.445C260.965 346.445 264.111 345.097 267.256 343.749C265.908 321.731 262.313 303.757 256.472 293.422C256.472 293.422 241.194 277.246 200.304 295.669C200.304 295.669 222.771 507.311 238.947 565.726C239.846 562.131 239.846 559.435 239.846 556.29Z" fill="#202234"/>
<path d="M207.044 122.221C156.717 121.772 139.193 289.378 146.832 303.757C154.47 318.136 255.124 321.281 260.965 301.96C266.358 282.188 252.428 123.12 207.044 122.221Z" fill="white"/>
<path d="M205.696 122.223C205.247 122.223 204.348 122.672 203.898 122.672C192.665 126.267 205.247 197.263 205.247 197.263L203.898 249.388L204.348 251.634V318.138C204.348 318.138 204.348 318.138 203.898 318.587C198.956 321.283 153.572 345.548 143.237 306.005C132.452 263.767 131.554 154.576 179.634 128.963C188.171 124.469 197.158 122.672 202.55 122.672C203.898 122.223 205.247 122.223 205.696 122.223Z" fill="#2F40EA"/>
<path d="M265.01 306.005C264.56 307.353 264.111 309.151 263.662 310.499C251.529 344.2 209.291 321.733 204.348 319.036C203.899 319.036 203.899 318.587 203.899 318.587V251.635L204.348 249.388L205.696 197.264C205.696 197.264 215.582 126.267 204.348 122.672C203.899 122.672 203.449 122.223 203 122.223C211.088 121.324 221.873 126.267 229.961 128.963C273.997 145.14 275.794 263.767 265.01 306.005Z" fill="#2F40EA"/>
<path d="M236.251 273.203L258.269 282.639C258.269 282.639 260.965 287.133 257.37 290.278C253.775 293.873 237.15 279.494 236.251 273.203Z" fill="#2B3AC3"/>
<path d="M175.59 273.203L153.572 282.639C153.572 282.639 150.876 287.133 154.47 290.278C158.065 293.873 174.691 279.494 175.59 273.203Z" fill="#2B3AC3"/>
<path d="M222.771 126.715C222.771 126.715 219.626 164.91 211.538 186.478C209.74 190.972 207.943 194.567 205.696 197.263C205.696 197.263 201.203 186.928 196.26 173.447C189.969 156.821 183.678 135.702 185.476 125.817C185.026 126.266 201.652 117.728 222.771 126.715Z" fill="#2B3AC3"/>
<path opacity="0.15" d="M193.114 123.57C194.013 127.165 196.26 129.861 199.854 131.209C202.551 132.108 205.247 133.007 207.943 132.108C210.189 131.659 211.537 129.861 213.784 129.861C217.828 129.861 218.727 134.355 218.727 137.5C219.176 141.095 217.379 143.342 214.683 145.588C213.335 146.936 212.436 147.835 212.885 150.082C213.335 152.328 214.234 154.126 214.234 156.373C214.234 158.619 213.335 160.417 212.436 162.663C211.088 165.359 211.987 168.056 211.987 170.752C211.537 177.492 206.145 182.884 199.854 184.681C203 192.32 205.247 197.712 205.247 197.712C218.278 182.435 222.771 126.266 222.771 126.266C211.088 120.874 200.304 121.773 193.114 123.57Z" fill="#231F20"/>
<path opacity="0.15" d="M217.379 128.063C217.379 131.658 211.538 134.803 204.348 134.803C197.159 134.803 191.317 131.658 191.317 128.063C191.317 124.468 197.159 121.323 204.348 121.323C211.538 121.323 217.379 124.468 217.379 128.063Z" fill="#33133F"/>
<path d="M211.537 123.121L216.48 125.368C216.48 125.368 214.683 128.963 205.246 130.76C195.81 132.557 188.621 125.817 188.621 125.817L195.361 124.469L198.057 110.989C202.101 110.989 206.145 110.989 210.189 110.989L211.537 123.121Z" fill="#FFBDB0"/>
<path opacity="0.15" d="M211.537 123.121L210.189 110.539C206.145 110.539 202.101 110.539 198.057 110.539L197.158 113.684C198.057 115.033 198.506 115.931 199.854 116.83C200.753 117.729 201.652 118.178 202.55 118.627C203.449 119.077 204.348 119.077 205.246 119.077C205.696 119.077 206.594 119.526 207.044 119.526C206.594 119.526 206.594 119.975 206.145 120.425C205.696 121.323 207.044 122.222 207.943 122.671C208.841 123.121 210.189 124.469 209.74 125.817C209.291 126.716 207.493 126.716 206.594 126.716C205.696 127.165 206.145 127.614 206.594 128.513C207.044 128.962 207.044 129.861 207.044 130.31C215.132 128.513 216.929 125.367 216.929 125.367L211.537 123.121Z" fill="#33133F"/>
<path d="M218.278 99.7557C217.828 99.3064 217.828 98.857 217.828 98.4077C217.828 98.4077 217.828 98.4077 217.828 98.857C217.828 98.857 217.828 98.857 217.828 99.3064V99.7557V100.205V100.654V101.104C216.48 106.047 212.436 114.584 204.348 114.584C194.013 114.135 189.969 100.205 189.519 98.857C189.519 99.3064 187.722 101.104 185.475 96.6103C183.229 91.6675 189.07 93.0155 189.07 93.0155C189.07 93.0155 186.374 73.6936 198.057 73.6936C206.145 73.6936 213.784 69.6495 218.727 77.7378C220.524 80.8832 220.974 86.7247 220.075 93.4649C220.524 93.0155 222.322 91.2181 223.22 93.0155C222.771 94.3636 220.524 102.452 218.278 99.7557Z" fill="#FFBDB0"/>
<path opacity="0.15" d="M192.215 82.6788C194.911 83.5775 197.608 83.5775 200.304 83.5775C202.55 83.5775 205.246 83.1281 207.493 82.2295C210.189 81.3308 212.885 80.4321 215.132 78.6347C216.031 78.1853 216.48 77.2867 217.379 76.8373C212.436 69.1984 204.797 72.7932 196.709 73.2425C191.766 73.2425 189.519 76.8373 188.621 80.4321C189.519 81.3308 190.867 82.2295 192.215 82.6788Z" fill="#33133F"/>
<path opacity="0.05" d="M220.075 93.4645C220.075 93.4645 222.322 93.0151 221.872 94.8125C221.423 96.6099 220.524 98.4073 219.176 98.4073C219.176 98.4073 220.974 97.5086 220.974 95.7112C220.974 93.9138 218.727 94.3632 220.075 93.4645Z" fill="#33133F"/>
<path opacity="0.05" d="M189.969 98.856C189.969 99.7547 191.317 100.653 192.665 100.653C194.013 100.653 195.361 99.7547 195.361 98.856C195.361 97.9573 194.013 97.0586 192.665 97.0586C191.317 97.0586 189.969 97.9573 189.969 98.856Z" fill="#33133F"/>
<path opacity="0.05" d="M210.189 98.856C210.189 99.7547 211.537 100.653 212.886 100.653C214.234 100.653 215.582 99.7547 215.582 98.856C215.582 97.9573 214.234 97.0586 212.886 97.0586C211.537 97.0586 210.639 97.5079 210.189 98.856Z" fill="#33133F"/>
<path d="M207.044 88.0715C207.044 88.0715 207.044 87.6222 207.044 88.0715C206.594 87.6222 208.392 84.0274 213.334 85.3754C213.334 85.3754 213.784 85.3754 213.334 85.8248C213.334 85.8248 213.334 86.2741 212.885 85.8248C208.841 84.4767 207.493 87.6222 207.044 88.0715C207.493 88.0715 207.044 88.0715 207.044 88.0715Z" fill="#33143F"/>
<path d="M200.753 87.6217C200.753 87.6217 200.304 87.6217 200.753 87.6217C200.304 87.1724 198.956 84.4763 194.013 86.2737H193.563V85.8243C198.956 84.027 200.753 87.1724 200.753 87.6217Z" fill="#33143F"/>
<path d="M208.842 105.146C208.842 105.146 204.348 107.842 198.507 106.045C197.608 108.291 204.797 113.234 208.842 105.146Z" fill="#FCFAF7"/>
<path d="M208.841 91.6653C208.841 93.0134 209.74 93.912 210.638 93.912C211.537 93.912 211.986 92.564 211.986 91.216C211.986 89.8679 211.088 88.9692 210.189 88.9692C209.29 88.9692 208.841 90.3173 208.841 91.6653Z" fill="#33143F"/>
<path d="M195.361 91.6653C195.361 93.0134 196.26 93.912 197.158 93.912C198.057 93.912 198.506 92.564 198.506 91.216C198.506 89.8679 197.608 88.9692 196.709 88.9692C195.81 89.4186 195.361 90.7666 195.361 91.6653Z" fill="#33143F"/>
<path opacity="0.05" d="M203.449 111.887C203.898 111.887 204.347 111.887 204.347 111.887C204.347 111.887 204.347 111.887 204.347 111.438C204.347 111.438 204.347 111.438 203.898 111.438C203.898 111.438 202.101 111.887 200.303 110.989H199.854V111.438C201.202 111.887 202.55 111.887 203.449 111.887Z" fill="#33133F"/>
<path opacity="0.05" d="M186.824 93.9131C186.824 93.9131 184.577 93.0145 185.026 94.8118C185.476 96.6092 186.374 98.856 187.722 98.4066C187.722 98.4066 185.925 97.5079 185.925 95.7105C185.925 94.3625 188.172 95.2612 186.824 93.9131Z" fill="#33133F"/>
<path d="M215.132 78.1865C215.132 78.1865 177.387 91.6669 180.982 76.3891C184.577 61.1113 193.114 66.5035 193.114 66.5035C193.114 66.5035 186.824 63.8074 189.969 61.1113C193.114 58.4153 197.159 65.1554 211.088 64.7061C225.018 64.2567 225.467 86.724 219.177 92.5655C219.177 92.5655 211.088 89.8695 215.132 78.1865Z" fill="#33143F"/>
<path d="M190.868 78.186C190.868 78.186 190.418 88.521 188.172 92.5651C188.172 92.5651 184.577 85.8249 185.925 79.0847C186.824 72.7939 190.868 78.186 190.868 78.186Z" fill="#33143F"/>
<path opacity="0.25" d="M184.127 78.1864C184.127 78.1864 200.304 82.2306 215.132 75.041C215.132 75.041 197.608 85.8253 184.127 78.1864Z" fill="white"/>
<path opacity="0.25" d="M196.26 75.4909C196.26 75.4909 206.595 78.1869 216.031 73.2441C216.031 73.2441 204.797 80.4337 196.26 75.4909Z" fill="white"/>
<path opacity="0.25" d="M218.277 73.2441C218.277 73.2441 218.727 78.6363 216.031 82.6804C216.031 82.6804 220.075 77.7376 218.277 73.2441Z" fill="white"/>
<path opacity="0.25" d="M219.626 73.2441C219.626 73.2441 221.872 81.3324 219.176 88.5219C218.727 88.5219 223.67 79.9843 219.626 73.2441Z" fill="white"/>
<path opacity="0.25" d="M185.476 70.0983C185.476 70.0983 186.824 66.5035 194.013 66.5035C194.013 66.5035 189.52 63.3581 192.216 62.4594C194.912 61.5607 200.304 65.6048 203.899 65.1555C207.494 64.7061 211.987 64.7061 213.335 65.6048C213.335 65.6048 207.044 64.7061 204.348 66.0541C201.652 67.4022 195.811 64.7061 195.811 64.7061C195.811 64.7061 198.507 67.8515 195.361 67.8515C192.216 68.7502 189.52 66.9528 185.476 70.0983Z" fill="white"/>
<path d="M211.088 186.479C209.291 190.973 207.494 194.567 205.247 197.263C205.247 197.263 200.753 186.929 195.811 173.448C196.709 163.113 198.507 153.228 201.652 145.139C201.203 143.791 196.709 135.703 196.26 134.355C197.159 133.906 203.449 129.412 203.899 128.963C205.696 129.412 208.392 135.254 209.74 135.703C209.74 136.602 210.19 143.342 209.291 143.791C207.494 156.373 208.842 170.752 211.088 186.479Z" fill="white"/>
<path d="M203.449 125.367C203.449 125.367 205.247 139.297 194.013 134.803C182.779 130.31 188.621 123.12 195.81 121.323C195.81 121.323 197.608 124.468 194.013 125.816C194.912 128.512 203.449 125.367 203.449 125.367Z" fill="#28264A"/>
<path d="M203.449 125.367C203.449 125.367 201.652 139.297 212.885 134.803C224.119 130.31 218.277 123.12 211.088 121.323C211.088 121.323 209.29 124.468 212.885 125.816C211.986 128.512 203.449 125.367 203.449 125.367Z" fill="#28264A"/>
<path d="M198.057 277.697C197.158 277.697 196.709 277.248 195.81 276.798L176.488 262.869C175.589 262.419 175.14 261.521 175.14 260.622C175.14 259.723 175.14 258.825 175.589 257.926L197.607 227.82C198.057 226.921 199.405 226.472 200.304 226.472C201.202 226.472 201.652 226.921 202.55 227.37L221.872 241.3C222.771 241.749 223.22 242.648 223.22 243.547C223.22 244.446 223.22 245.344 222.771 246.243L200.753 276.349C200.304 277.248 199.405 277.697 198.057 277.697Z" fill="#4D4D8E"/>
<path d="M221.423 242.199L202.101 228.269C201.202 227.37 199.854 227.82 198.956 228.719L176.938 258.825C176.039 259.723 176.488 261.071 177.387 261.97L196.709 275.9C197.608 276.799 198.956 276.349 199.854 275.45L221.872 245.344C222.322 244.446 222.322 243.098 221.423 242.199Z" fill="white"/>
<g opacity="0.15">
<path opacity="0.15" d="M221.872 245.343C222.771 244.445 222.322 243.097 221.423 242.198L220.524 241.299C220.524 241.749 220.524 242.647 220.524 243.546C220.524 244.894 219.625 246.242 218.727 247.141C217.828 248.04 217.379 249.388 216.48 250.286C215.132 251.634 212.885 252.982 210.639 252.982C208.392 252.982 206.145 252.084 203.898 251.185C201.202 249.837 198.506 248.039 196.259 246.242C197.158 248.938 198.506 251.185 199.405 253.881C199.405 254.33 199.405 254.33 198.956 254.33C198.057 254.33 197.158 253.881 196.709 253.432C196.259 252.982 195.361 252.533 194.462 252.533C194.462 253.881 194.911 254.78 195.361 256.128C195.81 257.476 196.709 258.824 197.158 260.172C197.607 261.071 197.607 262.419 197.607 263.767C197.158 265.115 196.709 266.013 195.81 266.463C193.114 268.709 189.07 267.811 185.924 266.912C184.576 266.463 183.228 265.564 181.88 265.115L197.158 276.348C198.057 277.247 199.405 276.798 200.304 275.899L221.872 245.343Z" fill="#073D6C"/>
</g>
<g opacity="0.37">
<g opacity="0.37">
<path opacity="0.37" d="M199.854 237.706L200.753 236.358L199.854 237.706Z" fill="#4462CC"/>
<path opacity="0.37" d="M201.652 239.055L202.101 237.258L201.652 237.707L201.203 238.157L202.101 236.809H202.551L201.652 239.055C202.101 238.606 202.101 238.606 202.101 238.606L202.551 238.157L201.652 239.055Z" fill="#4462CC"/>
<path opacity="0.37" d="M204.348 239.504C204.348 239.054 204.348 239.054 203.899 239.054H203.45V239.504C203.899 239.953 203.899 239.953 203.45 240.402C203.45 240.852 203 240.852 202.551 240.402C202.102 240.402 202.102 239.953 202.551 239.504V239.953H203V239.504C203 239.054 202.551 239.054 203 239.054C203 238.605 203.45 238.605 203.899 239.054C204.348 239.054 204.348 239.054 204.348 239.504Z" fill="#4462CC"/>
<path opacity="0.37" d="M205.696 241.302C205.247 241.752 205.247 241.752 204.797 241.302C204.348 240.853 204.348 240.853 204.797 240.404L205.247 239.505L204.797 240.404V240.853C204.797 241.302 205.247 241.302 205.696 241.302C205.247 240.853 205.247 240.853 205.696 241.302L206.145 240.404L205.696 241.302Z" fill="#4462CC"/>
<path opacity="0.37" d="M207.044 242.649C207.044 242.2 207.044 242.2 207.044 242.2V241.751H206.595L206.146 242.2L207.044 240.852L207.494 241.301C207.494 241.301 207.943 241.751 207.494 241.751H207.044C207.044 242.2 207.044 242.2 207.044 242.649ZM207.044 241.751C207.494 241.751 207.494 241.751 207.494 241.751V241.301H207.044V241.751Z" fill="#4462CC"/>
<path opacity="0.37" d="M207.943 243.098L207.493 243.547L208.841 242.649L208.392 244.446V243.997L207.943 243.098ZM208.392 243.098L208.841 242.199L208.392 243.098Z" fill="#4462CC"/>
<path opacity="0.37" d="M209.74 244.896L210.189 243.098L209.74 243.548L209.291 243.997L210.189 242.649H210.639L209.74 244.896C210.189 244.446 210.189 244.446 210.189 244.446L210.639 243.997L209.74 244.896Z" fill="#4462CC"/>
<path opacity="0.37" d="M212.436 245.794C212.436 245.344 212.436 245.344 211.987 244.895C211.537 244.895 211.537 244.895 211.088 245.344C210.639 245.794 210.639 246.243 211.088 246.243H211.537C211.537 246.243 211.088 246.693 210.639 246.243C210.189 245.794 210.189 245.344 210.639 244.895C211.088 244.446 211.537 244.446 211.987 244.446C212.885 244.895 212.885 245.344 212.436 245.794Z" fill="#4462CC"/>
<path opacity="0.37" d="M213.335 247.593L212.437 247.143L213.335 245.795L214.234 246.245L213.335 245.795L212.886 246.245L213.335 246.694L212.886 246.245V247.143L213.335 247.593Z" fill="#4462CC"/>
</g>
<g opacity="0.37">
<path opacity="0.37" d="M200.303 240.402C199.854 240.851 199.405 240.851 198.955 240.851C198.955 240.851 198.506 240.851 198.506 240.402L198.057 239.952L197.158 240.851L196.259 240.402L198.506 237.706L199.405 238.604C199.405 238.604 199.854 238.604 199.854 239.054C200.753 239.503 200.753 239.952 200.303 240.402ZM199.405 239.952V239.503H198.955L198.506 240.402H198.955C199.405 240.402 199.405 240.402 199.405 239.952Z" fill="#4462CC"/>
<path opacity="0.37" d="M203 243.547C202.55 244.446 201.202 244.446 200.304 243.996C199.405 243.547 199.405 242.199 199.854 241.3C200.304 240.401 201.652 240.401 202.55 240.851C203.449 241.3 203.898 242.648 203 243.547ZM202.55 242.648C203 242.199 203 241.75 202.55 241.3C202.101 240.851 201.652 241.3 201.202 241.75C200.753 242.199 200.753 242.648 201.202 243.098C201.202 243.547 202.101 243.547 202.55 242.648Z" fill="#4462CC"/>
<path opacity="0.37" d="M204.797 246.693L202.55 245.345L204.797 242.649L205.696 243.098L203.898 245.345L205.246 246.244L204.797 246.693Z" fill="#4462CC"/>
<path opacity="0.37" d="M205.246 246.692L207.493 243.996L208.392 244.445L206.145 247.142L205.246 246.692Z" fill="#4462CC"/>
<path opacity="0.37" d="M210.189 247.592L209.29 247.142C209.29 246.693 209.29 246.693 209.29 246.244C208.841 245.794 208.392 246.244 207.942 246.693C207.493 247.592 207.493 248.041 207.942 248.041C208.392 248.041 208.392 248.041 208.841 248.041L209.74 248.49C209.29 248.94 208.392 248.94 207.942 248.49C207.044 248.041 207.044 247.142 207.493 246.244C208.392 245.345 209.29 245.345 209.74 245.794C210.638 246.693 210.638 247.142 210.189 247.592Z" fill="#4462CC"/>
<path opacity="0.37" d="M210.638 251.187L209.74 250.738L210.638 249.839L211.088 247.592L211.986 248.042L211.537 249.39L212.885 248.491L213.784 248.94L211.537 249.839L210.638 251.187Z" fill="#4462CC"/>
</g>
</g>
<path d="M205.696 266.013C205.246 266.013 205.246 265.564 204.797 265.564C203.898 265.115 203.449 264.216 202.55 263.767C200.753 262.418 198.955 258.824 198.955 258.824C198.955 258.824 195.361 259.722 193.563 258.374C192.664 256.577 196.259 250.286 196.259 250.286C197.607 249.837 201.651 252.533 204.347 252.982C207.044 253.432 213.334 249.387 213.784 251.634C212.885 252.982 209.74 255.229 209.74 255.229C209.74 255.229 215.581 255.678 214.682 258.824C214.233 260.172 212.885 259.722 212.885 259.722C212.885 259.722 213.334 261.52 212.436 261.969C211.986 262.418 211.537 262.419 211.537 262.419C211.537 262.419 211.537 263.317 211.537 263.767C211.088 264.216 210.638 264.665 210.189 264.665C210.189 264.665 210.189 265.115 209.74 265.564C209.29 266.013 206.145 266.013 205.696 266.013Z" fill="#E9AA8E"/>
<path opacity="0.2" d="M212.436 260.172C212.436 260.172 212.436 260.621 211.987 260.621C211.537 261.071 211.537 261.071 211.088 261.52C210.638 261.52 210.638 261.52 210.189 261.969C209.74 262.419 209.74 262.868 209.74 262.868C209.74 263.317 209.29 263.767 209.29 264.216C208.841 264.665 208.841 264.665 208.392 265.115C207.942 265.564 207.942 265.564 207.493 265.564C207.044 265.564 206.594 265.564 206.145 265.564C206.594 266.013 209.74 266.013 210.189 265.564C210.638 265.115 210.638 264.665 210.638 264.665C211.088 264.665 211.537 264.216 211.987 263.767C212.436 263.317 211.987 262.419 211.987 262.419C211.987 262.419 212.436 262.419 212.885 261.969C212.885 261.52 212.885 259.723 212.436 260.172C212.885 259.723 212.436 259.723 212.436 260.172C212.436 259.723 212.436 259.723 212.436 260.172Z" fill="white"/>
<path opacity="0.2" d="M211.986 251.635C211.986 251.635 211.986 252.084 211.986 251.635C212.885 252.084 213.784 251.186 213.784 251.186C213.784 251.186 212.885 251.186 211.986 251.635Z" fill="white"/>
<path d="M137.845 215.687L198.057 248.939L192.665 261.97C192.665 261.97 127.51 264.666 109.985 235.458C95.6061 211.194 137.845 215.687 137.845 215.687Z" fill="#2B3AC3"/>
<path opacity="0.15" d="M185.924 257.476C181.431 257.476 176.488 257.476 172.444 255.679C167.95 255.679 163.008 254.331 158.514 252.534C155.818 251.635 153.122 250.287 150.426 249.388C147.73 248.04 144.585 247.591 141.439 247.591C138.294 247.591 135.148 247.141 132.452 246.243C129.756 245.344 127.509 243.547 125.263 242.199C123.915 241.3 123.016 240.401 121.668 239.952C120.769 239.053 119.421 238.604 118.073 238.155C117.174 237.705 115.826 236.807 114.928 236.357C114.029 235.908 112.681 235.458 111.782 235.458C111.333 235.458 110.434 235.908 109.985 236.357C128.408 264.666 192.215 262.419 192.215 262.419L193.114 259.723C192.215 257.926 188.62 257.476 185.924 257.476Z" fill="#073D6C"/>
<path d="M338.253 67.8512C337.803 69.1993 337.354 70.098 336.905 71.446C333.759 78.6356 330.164 84.9264 325.222 89.8692C323.874 91.6666 322.076 93.0146 320.279 94.3627C314.887 98.8561 308.596 102.002 301.406 103.799C300.957 103.799 300.957 103.799 300.508 103.799C300.058 103.799 299.609 103.799 299.609 103.799C292.869 102.002 286.578 98.4068 281.186 93.9133C277.591 90.7679 274.445 87.1731 271.749 83.5784C270.851 82.2303 269.952 80.4329 269.053 79.0849C267.256 75.4901 265.459 71.8954 264.111 67.4019C260.066 54.8202 258.269 41.3398 259.168 25.6127V23.366C259.168 20.6699 261.414 17.9738 264.56 18.4232H271.3C271.749 18.4232 286.578 17.9738 300.058 2.69608L301.406 0L303.653 2.69608C316.684 17.9738 331.512 18.8725 331.962 18.8725H338.702C341.398 18.8725 344.094 21.1193 343.645 24.2647V26.9608C344.543 41.7892 342.746 55.2696 338.253 67.8512Z" fill="white"/>
<path d="M301.406 4.49365C287.027 20.6701 270.851 21.1195 270.401 21.1195H263.661C262.313 21.1195 261.414 22.0181 261.414 23.3662V26.0623C260.516 41.34 262.313 54.3711 266.357 66.5034C269.952 77.2877 275.344 85.8253 282.983 92.1161C287.926 96.6096 293.767 99.755 300.507 101.552H300.957H301.406C308.146 99.755 313.988 96.6096 319.38 92.5655C327.019 86.2746 332.411 78.1864 336.455 67.4021C340.949 55.2698 342.746 42.2387 342.297 26.961V24.2649C342.297 22.9168 341.398 22.0181 340.05 22.0181H333.31C331.063 21.5688 315.336 21.1195 301.406 4.49365Z" fill="#4166F8"/>
<path d="M319.829 36.3971L295.115 59.3137L291.071 48.0801L288.375 47.6308L294.666 70.0981C296.463 73.2435 300.957 71.4461 302.754 68.3007L320.728 35.9478L319.829 36.3971Z" fill="#4462CC"/>
<path d="M319.38 34.6006L294.666 57.5172L288.375 47.1823L280.736 52.1251L290.173 68.3015C291.97 71.447 296.913 71.447 298.71 68.3015L320.279 35.0499L319.38 34.6006Z" fill="white"/>
<path opacity="0.2" d="M337.354 21.568C333.31 47.63 310.843 67.4012 283.433 67.4012C276.692 67.4012 270.851 66.0532 265.009 63.8065C264.111 60.6611 263.212 57.5156 262.763 54.3702C260.965 45.3833 260.516 35.947 260.965 25.6121V22.916C260.965 21.568 261.864 20.6693 263.212 20.6693H269.952C270.851 20.6693 286.578 20.2199 300.957 4.04346C308.596 13.0304 317.134 17.5238 322.975 19.3212C327.918 21.1186 331.063 21.1186 331.513 21.1186L337.354 21.568Z" fill="#A4B7FC"/>
<path opacity="0.2" d="M323.424 19.7706C315.785 40.8898 295.565 55.7183 272.199 55.2689C269.054 55.2689 265.908 54.8196 262.763 54.3702C260.965 45.3833 260.516 35.947 260.965 25.6121V22.916C260.965 21.568 261.864 20.6693 263.212 20.6693H269.952C270.851 20.6693 286.578 20.2199 300.957 4.04346C309.045 13.4797 317.134 17.9732 323.424 19.7706Z" fill="#A4B7FC"/>
</svg>
