<svg width="26" height="22" viewBox="0 0 26 22" fill="none" xmlns="http://www.w3.org/2000/svg">
<path d="M14.666 10.6666L17.1934 13.5555L20.5919 15.7274L21.1845 10.6844L20.5919 5.75403L17.1282 7.66217L14.666 10.6666Z" fill="#00832D"/>
<path d="M0 15.2592V19.5555C0 20.5378 0.795556 21.3333 1.77778 21.3333H6.07407L6.96296 18.0859L6.07407 15.2592L3.12593 14.3704L0 15.2592Z" fill="#0066DA"/>
<path d="M6.07408 0L0 6.07407L3.12593 6.96296L6.07408 6.07407L6.94815 3.28593L6.07408 0Z" fill="#E94235"/>
<path d="M6.07406 6.07397H0V15.2591H6.07406V6.07397Z" fill="#2684FC"/>
<path d="M24.4742 2.57191L20.5927 5.75413V15.7275L24.492 18.9245C25.0757 19.3808 25.929 18.9645 25.929 18.2223V3.25932C25.929 2.50821 25.0564 2.09636 24.4742 2.57191ZM14.6668 10.6667V15.2593H6.07422V21.3334H18.8149C19.7972 21.3334 20.5927 20.5378 20.5927 19.5556V15.7275L14.6668 10.6667Z" fill="#00AC47"/>
<path d="M18.8149 0H6.07422V6.07406H14.6668V10.6666L20.5927 5.75703V1.77777C20.5927 0.795554 19.7972 0 18.8149 0Z" fill="#FFBA00"/>
</svg>
