<svg width="335" height="600" viewBox="0 0 335 600" fill="none" xmlns="http://www.w3.org/2000/svg">
<path d="M131.604 364.846C185.048 418.29 179.797 436.517 177.325 468.337C174.854 499.539 243.436 505.717 219.957 573.373H234.477C234.477 573.373 332.099 555.764 320.36 506.335C308.62 456.907 235.095 514.676 233.859 479.767C232.624 444.549 281.434 400.99 261.972 381.528C242.509 362.065 232.006 426.632 202.04 409.64C172.073 392.649 222.12 348.472 214.397 317.271C206.674 286.069 185.666 321.287 147.359 334.262C111.832 346.31 133.457 253.94 105.036 264.135C98.8572 286.995 95.459 328.701 131.604 364.846Z" fill="#BDDCFD"/>
<path d="M91.7518 434.354C102.255 467.101 184.431 485.328 151.684 510.66C118.938 535.992 148.286 573.373 148.286 573.373H219.649C242.818 506.026 174.236 499.538 177.016 468.337C179.488 436.517 184.74 418.29 131.295 364.845C95.4589 328.701 98.8572 286.995 104.727 263.208C102.255 264.134 99.475 265.679 96.0768 268.15C54.9892 299.97 105.963 363.301 116.157 378.129C126.97 393.267 81.2482 401.917 91.7518 434.354Z" fill="#E4ECF4"/>
<path d="M227.063 480.076C233.242 485.946 232.624 499.23 232.315 504.173C234.168 507.571 237.258 513.441 238.184 518.075C240.347 513.75 242.818 509.425 245.908 505.409C248.688 501.701 251.159 497.994 252.704 494.596C253.631 489.962 254.867 486.255 256.72 482.548C258.883 471.735 257.029 462.776 255.175 457.524C249.615 454.744 245.908 451.964 241.583 446.094C236.64 439.298 249.306 428.176 255.484 435.282C261.045 441.769 257.956 455.98 257.647 458.142C259.192 463.085 260.427 470.191 259.501 478.532C260.118 477.914 260.427 477.296 261.045 476.369C266.915 469.264 282.67 479.458 276.801 488.108C271.858 495.214 257.956 496.758 253.631 497.067C252.086 500.157 249.924 503.555 247.452 506.644C237.875 518.692 234.168 533.212 233.242 545.569C235.404 543.716 238.493 542.171 241.274 541.244C245.29 534.757 248.379 530.432 255.793 526.107C263.826 521.473 274.947 536.61 266.606 542.48C259.501 547.423 246.217 544.334 241.892 543.098C238.802 544.334 234.168 546.496 233.242 548.659C232.624 562.56 235.095 573.373 235.404 573.682C235.404 574.3 235.095 574.609 234.786 574.918H234.477C234.168 574.918 233.55 574.609 233.55 574.3C233.55 573.991 227.063 547.423 236.64 522.4C237.567 519.619 233.859 511.587 230.77 505.717C223.665 503.246 218.722 500.775 212.852 494.287C206.983 486.873 219.649 472.971 227.063 480.076Z" fill="#E4ECF4"/>
<path d="M200.804 572.755C200.186 573.99 79.7036 572.755 79.7036 572.755C79.7036 572.755 58.6964 547.422 93.9144 528.887C113.686 518.383 79.0857 498.921 89.8983 478.531C100.711 458.142 122.954 484.401 132.222 466.174C141.489 447.947 161.261 407.169 169.293 432.501C177.325 457.833 138.091 473.897 163.732 492.742C189.374 511.587 221.811 521.472 189.991 528.269C158.79 535.374 217.795 547.422 200.804 572.755Z" fill="#BDDCFD"/>
<path d="M45.4125 502.01C54.0625 502.628 62.4036 513.75 65.184 517.766C68.5822 519.31 75.0697 522.091 78.7769 524.871C77.5411 520.237 76.9233 514.985 76.9233 509.734C76.9233 506.953 76.6143 504.173 76.3054 501.393C69.8179 503.555 64.5661 504.482 56.5339 503.246C47.2661 501.701 48.1928 482.548 58.6964 483.166C64.2572 483.475 69.8179 488.418 73.834 492.743C72.5983 489.962 71.6715 487.182 71.0536 484.092C65.8018 474.207 58.6964 468.028 53.7536 464.939C47.575 466.175 42.941 466.484 35.5267 464.63C27.4946 462.467 30.2749 445.476 39.5428 447.021C48.1928 448.566 54.9893 461.85 55.9161 464.012C60.2411 466.792 65.8018 471.735 70.4358 479.15C70.4358 478.223 70.4358 477.296 70.4358 476.369C70.4358 466.792 89.5894 464.939 90.5162 475.442C91.134 484.401 81.2483 494.287 77.8501 497.376C78.4679 501.084 79.0858 504.791 79.0858 509.116C79.0858 510.352 79.0858 511.278 79.0858 512.514C79.3947 509.425 80.0126 506.027 81.5572 502.319C84.9554 493.36 103.491 498.303 100.711 508.498C98.5483 516.839 86.5001 522.709 81.8661 524.562C81.8661 524.562 81.2483 531.05 92.9876 549.277C93.6055 546.496 95.1501 543.098 96.3858 540.627C95.459 532.903 95.1501 527.652 98.2394 519.31C101.638 510.352 120.173 515.294 117.393 525.489C114.922 533.83 102.564 540.009 97.9305 541.862C96.0769 544.952 93.9144 549.586 94.5323 552.057C94.5323 552.057 94.5323 552.057 94.5323 552.366C103.182 563.796 112.141 570.593 112.141 570.902C112.45 571.211 112.759 571.828 112.45 572.137C112.45 572.137 112.45 572.137 112.141 572.446C111.832 572.755 111.214 572.755 110.906 572.446C110.597 572.137 88.3537 555.146 80.0126 529.196C79.0858 526.416 71.0536 522.4 64.875 519.928C57.4607 522.4 52.2089 523.635 43.25 522.4C33.9821 520.546 34.9089 501.084 45.4125 502.01Z" fill="#E4ECF4"/>
<path d="M170.529 129.75L111.523 142.416L155.7 82.1751L150.757 77.8501C150.757 77.8501 81.2483 114.613 82.7929 157.554C84.3376 200.495 148.595 176.707 148.595 176.707C148.595 176.707 192.463 151.684 170.529 129.75Z" fill="#FFBDB0"/>
<path d="M187.211 127.279C187.211 127.279 137.473 130.986 129.441 136.238C121.409 141.49 115.539 179.797 123.263 182.886C130.986 185.975 171.147 180.724 171.147 180.724L187.211 127.279Z" fill="#2B3AC3"/>
<path d="M149.831 80.0123L150.449 78.1588C150.449 78.1588 152.92 70.1266 158.79 69.1998C164.659 68.273 164.659 71.3623 164.659 71.3623C164.659 71.3623 156.009 77.8498 158.79 77.8498C159.408 77.8498 160.025 78.1588 160.025 78.1588C160.025 78.1588 159.408 81.2481 155.7 82.4838C155.391 82.4838 150.449 84.0284 149.831 80.0123Z" fill="#FFBDB0"/>
<path d="M162.497 64.5658C162.497 64.5658 162.806 54.3711 160.025 54.3711C157.245 54.68 162.497 64.5658 162.497 64.5658Z" fill="white"/>
<path d="M156.318 67.0379C156.318 67.0379 148.904 59.9325 147.05 62.4039C145.197 64.8754 156.318 67.0379 156.318 67.0379Z" fill="white"/>
<path d="M159.098 65.8018C159.098 65.8018 154.773 52.8267 151.375 54.3714C147.977 55.6071 159.098 65.8018 159.098 65.8018Z" fill="white"/>
<path d="M108.434 563.796L107.816 571.211L117.702 572.446L118.32 564.414L108.434 563.796Z" fill="#F3AFB1"/>
<path d="M118.32 570.284C118.32 570.284 115.848 569.666 113.377 570.592C111.215 571.519 108.434 569.357 108.125 569.048C107.816 568.739 105.654 569.048 104.109 573.064C102.256 577.08 87.7359 574.918 83.4109 576.462C79.3948 578.316 103.8 586.966 118.629 584.803C122.954 576.771 118.32 570.284 118.32 570.284Z" fill="#1D2149"/>
<path d="M191.845 263.517C191.845 263.517 219.649 286.996 212.544 327.774C205.438 368.553 118.938 567.812 118.938 567.812L107.508 566.268L122.954 295.646L191.845 263.517Z" fill="#1D2149"/>
<path d="M218.104 577.388L219.958 584.803L229.534 582.949L227.681 574.917L218.104 577.388Z" fill="#F3AFB1"/>
<path d="M229.534 580.787C229.534 580.787 227.063 580.787 225.209 582.64C223.356 584.185 219.958 582.949 219.649 582.949C219.34 582.949 217.177 583.567 216.868 587.892C216.559 592.217 201.731 594.688 198.333 597.778C194.934 600.867 220.884 601.485 234.477 594.688C236.022 585.421 229.534 580.787 229.534 580.787Z" fill="#2D305E"/>
<path d="M203.276 266.297C203.276 266.297 236.949 279.89 243.127 320.668C249.306 361.756 229.535 578.007 229.535 578.007L218.104 579.86L148.286 318.197L203.276 266.297Z" fill="#2D305E"/>
<path d="M215.941 90.5164C216.868 89.8986 217.486 88.9718 218.104 88.045C222.738 81.2485 220.575 71.9807 213.779 67.3467C210.998 65.4931 208.218 64.8753 205.129 64.8753C204.202 62.7128 202.966 60.5503 200.804 59.3146C198.023 57.461 194.625 57.152 191.845 57.7699C191.536 57.7699 191.536 57.461 191.227 57.461C188.446 55.6074 185.048 56.5342 183.195 59.0056C182.886 59.6235 182.577 60.2413 182.577 60.8592C182.268 60.5503 181.959 60.2413 181.341 59.9324C175.163 55.9163 166.512 57.461 162.496 63.9485C158.48 70.1271 160.025 78.7771 166.512 82.7932C172.691 86.8093 181.341 85.2646 185.357 78.7771C185.975 77.8503 186.284 77.2325 186.593 76.3057C187.211 76.9235 187.829 77.5414 188.755 78.1592C189.373 78.7771 190.3 79.086 191.227 79.395C191.227 81.8664 191.536 84.0289 192.771 86.1914C191.845 86.8093 191.227 87.7361 190.609 88.6628C185.975 95.4593 188.138 104.727 194.934 109.361C201.73 113.995 210.998 111.833 215.632 105.036C217.795 100.711 218.104 95.1504 215.941 90.5164Z" fill="#1D2149"/>
<path d="M237.257 279.581C227.372 306.458 211.616 307.076 180.723 312.945C164.041 316.035 147.668 315.726 134.693 311.401C98.2393 298.426 136.546 150.757 176.398 131.913C176.398 131.913 204.511 115.539 215.323 126.661C227.372 139.327 242.509 264.752 237.257 279.581Z" fill="#2F40EA"/>
<path opacity="0.1" d="M237.257 279.581C227.372 306.458 211.616 307.076 180.723 312.946C243.127 274.947 228.607 175.472 228.607 175.472C228.607 175.472 242.509 264.753 237.257 279.581Z" fill="#000107"/>
<path d="M185.357 105.345L187.829 130.986C187.829 130.986 192.771 137.474 199.259 132.531C205.747 127.897 207.291 122.954 207.291 122.954L195.861 101.329L185.357 105.345Z" fill="#FFBDB0"/>
<path opacity="0.18" d="M186.593 117.085C188.138 118.629 191.536 118.32 193.698 117.702C196.788 117.084 203.893 118.32 204.202 118.32L195.552 101.329L185.357 105.345L186.593 117.085Z" fill="#000107"/>
<path d="M204.202 88.663C204.202 88.663 204.202 90.2076 203.893 92.6791C204.82 92.6791 206.055 92.988 206.982 94.2237C209.145 96.3862 205.129 101.02 202.966 101.638C201.73 109.361 195.861 116.467 189.991 116.776C182.886 117.084 178.252 114.304 176.398 104.727C176.398 104.418 173.309 102.565 173.309 101.947C173 100.711 175.162 98.2398 175.162 96.6951C174.854 93.2969 174.854 89.2808 175.471 84.9558C175.162 84.6469 185.975 70.1272 204.202 88.663Z" fill="#FFBDB0"/>
<path d="M180.723 105.963C181.959 106.272 182.577 107.817 182.577 107.817C182.577 108.126 182.577 108.435 182.268 108.744C181.959 108.744 181.65 108.744 181.341 108.435C181.341 108.126 180.723 107.199 180.106 107.199C179.488 107.199 179.179 107.199 178.561 107.817C178.252 108.126 177.943 108.126 177.634 107.817C177.325 107.508 177.325 107.199 177.634 106.89C178.87 106.272 179.797 105.963 180.723 105.963C180.415 105.963 180.723 105.963 180.723 105.963Z" fill="#1D2149"/>
<path d="M177.016 89.8982C177.016 89.8982 183.195 92.0607 183.812 91.7518C184.739 91.4428 183.195 89.2803 180.414 88.9714C177.634 88.3535 176.398 89.5893 177.016 89.8982Z" fill="#1D2149"/>
<path d="M182.577 94.2232C182.577 95.15 181.959 96.0768 181.032 96.0768C180.105 96.0768 179.488 95.15 179.488 94.2232C179.488 93.2964 180.105 92.3696 181.032 92.3696C181.341 92.3696 181.65 92.3696 181.65 92.6786C181.341 92.6786 181.032 92.9875 181.032 93.6053C181.032 94.2232 181.341 94.5321 181.65 94.5321C181.959 94.5321 182.268 94.2232 182.268 93.9143C182.577 93.9143 182.577 94.2232 182.577 94.2232Z" fill="#1D2149"/>
<path opacity="0.18" d="M203.893 92.3697C203.893 92.3697 190.918 91.4429 188.755 87.1179C186.593 83.1018 189.064 84.6465 189.064 84.6465C189.064 84.6465 202.966 86.5001 204.202 88.3536C205.129 90.5161 203.893 92.3697 203.893 92.3697Z" fill="#000107"/>
<path opacity="0.18" d="M194.316 84.029C194.316 84.029 189.991 82.4843 187.211 83.4111C184.74 84.3379 177.634 89.5897 175.163 84.6468C172.382 79.7039 188.447 77.8504 193.39 79.395C198.333 80.6307 194.316 84.029 194.316 84.029Z" fill="#000107"/>
<path d="M194.625 70.7449C186.284 67.6556 172.382 84.0289 172.382 84.0289C172.382 84.0289 181.032 85.2646 184.431 83.1021C188.138 80.9396 194.316 83.1021 194.316 83.1021C191.845 85.2646 188.138 84.3378 188.138 84.3378C191.845 89.2807 204.202 88.6628 204.202 88.6628C204.202 88.6628 202.966 73.8342 194.625 70.7449Z" fill="#1D2149"/>
<path d="M204.202 88.6626C204.202 88.6626 199.568 91.7519 198.024 96.6948C198.024 96.6948 200.186 92.6787 204.511 92.6787C208.836 92.3697 204.202 88.6626 204.202 88.6626Z" fill="#1D2149"/>
<path opacity="0.18" d="M203.893 93.9146C203.893 93.9146 206.056 94.5324 206.056 95.4592C206.365 96.386 205.438 99.1664 203.584 99.4753C203.584 99.4753 206.056 97.0038 205.438 96.386C204.82 95.7681 202.349 94.5324 203.893 93.9146Z" fill="#000107"/>
<path d="M289.467 301.824L148.904 232.624C133.457 224.9 114.613 231.388 106.889 246.834C99.1661 262.281 105.654 281.126 121.1 288.849L261.663 358.049C277.109 365.772 295.954 359.285 303.677 343.838C311.401 328.083 305.222 309.547 289.467 301.824Z" fill="url(#paint0_linear_168:1347)"/>
<path d="M157.554 268.46C156.009 271.549 153.229 271.858 151.066 271.24C150.139 270.931 149.522 270.622 148.595 270.313L146.741 269.386L144.27 274.638L140.254 272.785L147.668 257.956L153.229 260.736C154.155 261.045 154.773 261.663 155.391 261.972C157.863 263.208 159.098 265.679 157.554 268.46ZM153.538 266.606C154.155 265.37 153.847 264.753 152.92 264.135C152.611 263.826 152.302 263.826 151.993 263.517L150.448 262.59L148.595 266.297L150.139 266.915C150.448 267.224 150.757 267.224 151.066 267.533C152.302 267.842 152.92 267.533 153.538 266.606Z" fill="white"/>
<path d="M158.789 276.801L155.7 280.199L151.684 278.036L164.35 265.679L168.984 268.151L167.13 285.76L162.805 283.597L163.423 278.963L158.789 276.801ZM161.261 274.329L164.041 275.565L164.968 270.313L161.261 274.329Z" fill="white"/>
<path d="M184.431 281.434L180.415 279.581C180.723 278.345 180.723 277.109 179.179 276.491C178.252 276.182 177.325 276.182 177.016 277.109C176.398 278.036 177.016 278.963 179.179 280.816C181.959 283.288 182.577 285.45 181.341 287.922C179.797 291.011 176.398 291.011 173.309 289.466C169.602 287.613 167.748 284.832 168.984 281.434L173 283.288C172.691 284.832 173.309 286.068 174.545 286.686C175.781 287.304 176.707 286.995 177.016 286.377C177.325 285.45 177.016 284.523 175.472 283.288C172.382 280.816 171.147 278.654 172.382 275.873C173.927 273.093 177.325 272.784 180.106 274.02C185.048 275.565 185.357 278.654 184.431 281.434Z" fill="white"/>
<path d="M198.023 288.232L194.007 286.378C194.316 285.142 194.316 283.907 192.771 283.289C191.845 282.98 190.918 282.98 190.609 283.907C189.991 284.833 190.609 285.76 192.771 287.614C195.552 290.085 196.17 292.248 194.934 294.719C193.389 297.808 189.991 297.808 186.902 296.264C183.195 294.41 181.341 291.63 182.577 288.232L186.593 290.085C186.284 291.63 186.902 292.865 188.138 293.483C189.373 294.101 190.3 293.792 190.609 293.174C190.918 292.248 190.609 291.321 189.064 290.085C185.975 287.614 184.739 285.451 185.975 282.671C187.52 279.89 190.918 279.582 193.698 280.817C198.332 282.362 198.95 285.142 198.023 288.232Z" fill="white"/>
<path d="M211.925 308.002L206.982 305.222L210.689 292.556L202.966 303.06L197.714 300.897L201.421 284.215L205.438 286.377L201.421 299.352L209.145 288.54L214.705 291.32L210.689 303.986L218.722 293.174L222.738 295.027L211.925 308.002Z" fill="white"/>
<path d="M235.713 310.165C233.242 314.799 228.917 316.344 224.283 314.181C219.649 312.019 218.104 307.385 220.575 302.751C223.047 297.808 227.372 296.572 232.006 298.735C236.64 300.897 238.184 305.531 235.713 310.165ZM231.697 308.312C233.242 305.222 232.624 302.751 230.461 301.515C228.299 300.279 225.827 301.515 224.283 304.604C222.738 307.694 223.356 310.165 225.518 311.401C227.99 312.637 230.152 311.401 231.697 308.312Z" fill="white"/>
<path d="M247.143 324.994L242.818 322.831C243.127 321.595 243.127 320.669 243.745 319.433C244.363 317.579 244.054 316.343 243.127 315.726C242.818 315.417 242.2 315.417 241.891 315.108H240.965L238.184 320.669L234.168 318.815L241.582 303.986L247.452 306.767C248.379 307.076 248.997 307.693 249.615 308.002C251.777 309.238 253.013 311.401 251.777 313.872C250.85 315.726 249.306 316.652 246.834 316.035C248.07 317.27 248.07 318.815 247.452 320.669C247.143 322.831 247.143 324.067 247.143 324.994ZM243.745 312.945C244.054 313.254 244.363 313.254 244.672 313.563C245.599 313.872 246.834 314.181 247.452 312.945C248.07 311.71 247.452 311.092 246.525 310.474C246.216 310.165 245.908 310.165 245.599 309.856L244.054 308.929L242.509 312.327L243.745 312.945Z" fill="white"/>
<path d="M266.915 325.303C264.752 329.937 260.427 331.172 256.72 329.628C255.793 329.319 255.485 329.319 254.867 328.701L249.306 325.92L256.72 311.092L262.281 313.872C263.208 314.181 263.517 314.49 264.135 314.799C267.224 316.961 269.077 320.669 266.915 325.303ZM262.59 323.449C263.826 320.669 263.208 318.815 261.354 317.579C260.736 317.27 260.427 317.27 260.118 316.961L258.883 316.344L254.558 325.303L255.793 325.92C256.411 326.229 256.72 326.229 257.338 326.538C259.192 327.156 261.354 325.92 262.59 323.449Z" fill="white"/>
<path d="M197.715 186.903L213.161 260.119L194.625 314.799L205.129 318.815C205.129 318.815 231.388 278.655 237.567 263.517C243.745 248.379 240.347 166.513 240.347 166.513L197.715 186.903Z" fill="#FFBDB0"/>
<path d="M198.641 205.438C198.641 205.438 180.724 166.204 194.316 138.4C199.259 127.897 204.82 119.865 214.088 123.881C219.649 126.352 250.233 173.618 240.656 184.431C219.649 183.504 198.641 205.438 198.641 205.438Z" fill="#2B3AC3"/>
<path d="M194.625 314.799L193.699 317.58C193.699 317.58 186.284 319.433 187.211 321.287C188.138 323.14 192.772 321.905 192.772 321.905C192.772 321.905 188.138 327.156 194.625 333.335C197.097 335.498 199.568 337.351 202.966 329.628C206.365 321.905 205.129 318.815 205.129 318.815L194.625 314.799Z" fill="#F9A6A6"/>
<path d="M264.135 62.7126V60.8591C264.135 53.7537 266.297 47.5751 276.183 38.9251C282.979 32.7465 284.215 28.1125 284.215 23.1697C284.215 17.3 280.508 11.1214 271.549 11.1214C262.59 11.1214 258.574 16.6822 257.338 24.7143H245.29C245.908 16.3732 251.16 0.926758 271.858 0.926758C290.703 0.926758 296.881 13.9018 296.881 23.4786C296.881 32.1286 294.101 37.6894 284.833 46.0304C278.654 51.5912 276.801 55.9162 276.801 61.7858V63.0216H264.135V62.7126ZM264.135 89.2806V71.3627H276.801V89.2806H264.135Z" fill="#BDDCFD"/>
<path d="M94.8412 68.5824V67.3467C94.8412 62.7127 96.3858 58.6966 102.873 52.827C107.507 48.8109 108.125 45.7216 108.125 42.3234C108.125 38.3073 105.654 34.2912 99.784 34.2912C93.9144 34.2912 91.134 37.9984 90.5162 43.5591H82.484C82.7929 37.9984 86.5001 27.8037 100.093 27.8037C112.45 27.8037 116.466 36.4537 116.466 42.6323C116.466 48.502 114.613 52.2091 108.434 57.7699C104.418 61.477 103.182 64.2574 103.182 68.2735V68.8913H94.8412V68.5824ZM94.8412 86.1914V74.1431H103.182V86.1914H94.8412Z" fill="#BDDCFD"/>
<path d="M143.034 24.0965V23.4786C143.034 20.6983 143.961 18.2268 147.668 14.8286C150.449 12.3572 150.758 10.5036 150.758 8.65002C150.758 6.48752 149.213 4.01608 145.815 4.01608C142.416 4.01608 140.872 6.17859 140.254 9.26788H135.929C136.238 6.17859 138.4 0 146.124 0C153.538 0 155.7 4.94287 155.7 8.65002C155.7 12.0482 154.465 14.2107 151.066 17.609C148.595 19.7715 147.977 21.3161 147.977 23.7876V24.0965H143.034ZM143.034 34.6001V27.4947H147.977V34.6001H143.034Z" fill="#BDDCFD"/>
<path d="M333.335 178.87H326.538V172.074C326.538 171.456 325.921 170.838 325.303 170.838C324.685 170.838 324.067 171.456 324.067 172.074V178.87H317.271C316.653 178.87 316.035 179.488 316.035 180.106C316.035 180.415 316.035 180.724 316.344 181.033C316.653 181.341 316.962 181.341 317.271 181.341H324.067V188.138C324.067 188.447 324.067 188.756 324.376 189.065C324.685 189.374 324.994 189.374 325.303 189.374C325.921 189.374 326.538 188.756 326.538 188.138V181.341H333.335C333.953 181.341 334.571 180.724 334.571 180.106C334.571 179.488 334.262 178.87 333.335 178.87Z" fill="#BDDCFD"/>
<path d="M10.8125 215.015C4.94287 215.015 0 210.072 0 204.202C0 198.333 4.94287 193.39 10.8125 193.39C16.6822 193.39 21.6251 198.333 21.6251 204.202C21.3161 210.072 16.6822 215.015 10.8125 215.015ZM10.8125 197.715C7.10538 197.715 4.32501 200.804 4.32501 204.202C4.32501 207.909 7.4143 210.69 10.8125 210.69C14.5197 210.69 17.3 207.6 17.3 204.202C17.3 200.495 14.2108 197.715 10.8125 197.715Z" fill="#BDDCFD"/>
<defs>
<linearGradient id="paint0_linear_168:1347" x1="107.12" y1="246.931" x2="303.856" y2="343.764" gradientUnits="userSpaceOnUse">
<stop stop-color="#BDDCFD"/>
<stop offset="1" stop-color="#5F98ED"/>
</linearGradient>
</defs>
</svg>
