<svg width="124" height="30" viewBox="0 0 124 30" fill="none" xmlns="http://www.w3.org/2000/svg">
<g clip-path="url(#clip0_99:121)">
<path fill-rule="evenodd" clip-rule="evenodd" d="M10.806 7.06152H19.2676C23.8107 7.06152 25.5209 9.36149 25.2566 12.7404C24.8198 18.3189 21.4474 21.4052 16.9742 21.4052H14.7157C14.1019 21.4052 13.6891 21.8114 13.5231 22.9123L12.5642 29.312C12.5009 29.727 12.2825 29.9672 11.9549 30H6.63851C6.13833 30 5.96141 29.6178 6.09246 28.79L9.33382 8.27376C9.4605 7.4525 9.91044 7.06152 10.806 7.06152Z" fill="#009EE3"/>
<path fill-rule="evenodd" clip-rule="evenodd" d="M47.542 6.68164C50.3967 6.68164 53.0308 8.23024 52.6705 12.0897C52.2336 16.6765 49.7764 19.2146 45.8994 19.2255H42.5117C42.0247 19.2255 41.7888 19.623 41.6621 20.4377L41.0068 24.603C40.9085 25.2321 40.5853 25.5422 40.1091 25.5422H36.9573C36.4549 25.5422 36.2802 25.2211 36.3916 24.5025L38.993 7.80869C39.1219 6.98743 39.4298 6.68164 39.9912 6.68164H47.5354H47.542ZM42.4091 15.6194H44.9755C46.5809 15.5582 47.6468 14.4465 47.7538 12.4414C47.8193 11.2029 46.9828 10.3161 45.6526 10.3227L43.2369 10.3336L42.4091 15.6194ZM61.2391 24.2645C61.5274 24.0024 61.8201 23.8669 61.7786 24.1902L61.6759 24.9634C61.6235 25.3675 61.7829 25.5815 62.1586 25.5815H64.9588C65.4306 25.5815 65.6599 25.3915 65.7757 24.662L67.5012 13.8327C67.5885 13.2888 67.4553 13.0224 67.0425 13.0224H63.9628C63.6854 13.0224 63.55 13.1775 63.4779 13.6012L63.3643 14.2674C63.3053 14.6147 63.1459 14.6758 62.9974 14.3263C62.4753 13.0901 61.143 12.5353 59.2842 12.579C54.966 12.6685 52.0545 15.947 51.7422 20.1494C51.5019 23.3995 53.8303 25.9528 56.9012 25.9528C59.1291 25.9528 60.1251 25.2976 61.2478 24.271L61.2391 24.2645ZM58.8932 22.5979C57.0345 22.5979 55.7393 21.1148 56.0079 19.2976C56.2766 17.4803 58.0152 15.9973 59.8739 15.9973C61.7327 15.9973 63.0279 17.4803 62.7593 19.2976C62.4906 21.1148 60.7542 22.5979 58.8932 22.5979ZM72.9813 12.9874H70.1419C69.5565 12.9874 69.3184 13.4243 69.5041 13.9616L73.0294 24.2841L69.5718 29.1964C69.2813 29.607 69.5063 29.9805 69.9147 29.9805H73.1058C73.2918 30.002 73.4801 29.9696 73.6481 29.8871C73.8162 29.8046 73.957 29.6756 74.0538 29.5153L84.8961 13.9638C85.2303 13.4854 85.0731 12.9831 84.5248 12.9831H81.5041C80.9864 12.9831 80.7789 13.1884 80.4819 13.6187L75.9606 20.1713L73.9402 13.6034C73.8223 13.2059 73.5274 12.9874 72.9835 12.9874H72.9813Z" fill="#113984"/>
<path fill-rule="evenodd" clip-rule="evenodd" d="M96.1765 6.68113C99.0312 6.68113 101.665 8.22973 101.305 12.0892C100.868 16.676 98.4109 19.2141 94.534 19.225H91.1485C90.6614 19.225 90.4255 19.6225 90.2988 20.4372L89.6435 24.6025C89.5453 25.2315 89.222 25.5417 88.7458 25.5417H85.594C85.0917 25.5417 84.9169 25.2206 85.0283 24.502L87.6341 7.80381C87.7629 6.98255 88.0709 6.67676 88.6323 6.67676H96.1765V6.68113ZM91.0436 15.6189H93.61C95.2154 15.5577 96.2813 14.446 96.3884 12.4409C96.4539 11.2024 95.6173 10.3156 94.2872 10.3222L91.8714 10.3331L91.0436 15.6189ZM109.874 24.2639C110.162 24.0018 110.455 23.8664 110.413 24.1897L110.31 24.9629C110.258 25.367 110.417 25.581 110.793 25.581H113.593C114.065 25.581 114.294 25.391 114.41 24.6615L116.136 13.8322C116.223 13.2883 116.09 13.0219 115.677 13.0219H112.602C112.324 13.0219 112.189 13.1769 112.117 13.6007L112.003 14.2669C111.944 14.6141 111.785 14.6753 111.636 14.3258C111.114 13.0896 109.782 12.5348 107.923 12.5785C103.605 12.668 100.693 15.9465 100.381 20.1489C100.141 23.399 102.469 25.9523 105.54 25.9523C107.768 25.9523 108.764 25.2971 109.887 24.2705L109.874 24.2639ZM107.53 22.5974C105.671 22.5974 104.376 21.1143 104.645 19.2971C104.913 17.4798 106.652 15.9967 108.511 15.9967C110.369 15.9967 111.665 17.4798 111.396 19.2971C111.127 21.1143 109.389 22.5974 107.53 22.5974ZM120.445 25.5985H117.213C117.156 25.601 117.1 25.5911 117.048 25.5694C116.996 25.5477 116.95 25.5149 116.912 25.4731C116.874 25.4314 116.846 25.3818 116.83 25.328C116.813 25.2742 116.809 25.2174 116.817 25.1617L119.657 7.17258C119.684 7.0498 119.752 6.93982 119.849 6.8605C119.947 6.78119 120.068 6.73722 120.194 6.73574H123.427C123.483 6.73322 123.539 6.74315 123.591 6.76482C123.643 6.7865 123.689 6.81937 123.727 6.8611C123.765 6.90283 123.793 6.95239 123.809 7.00623C123.826 7.06008 123.83 7.11688 123.822 7.17258L120.982 25.1617C120.956 25.2852 120.889 25.3962 120.791 25.4764C120.693 25.5566 120.571 25.6012 120.445 25.6029V25.5985Z" fill="#009EE3"/>
<path fill-rule="evenodd" clip-rule="evenodd" d="M5.51255 0H13.9829C16.368 0 19.1987 0.076447 21.0903 1.74736C22.3549 2.86349 23.0189 4.63924 22.866 6.5526C22.3462 13.02 18.478 16.6436 13.2883 16.6436H9.11211C8.40006 16.6436 7.93046 17.1154 7.72952 18.391L6.56315 25.8173C6.48671 26.2978 6.27921 26.5817 5.90789 26.6167H0.681103C0.10229 26.6167 -0.103026 26.1798 0.0476834 25.2144L3.80451 1.41099C3.95522 0.454312 4.48161 0 5.51255 0Z" fill="#113984"/>
<path fill-rule="evenodd" clip-rule="evenodd" d="M7.85156 17.6377L9.33027 8.27399C9.45914 7.45273 9.90908 7.05957 10.8046 7.05957H19.2662C20.6663 7.05957 21.7999 7.27799 22.6867 7.68207C21.837 13.4396 18.1129 16.6373 13.2378 16.6373H9.06816C8.50901 16.6395 8.09838 16.9191 7.85156 17.6377Z" fill="#172C70"/>
</g>
<defs>
<clipPath id="clip0_99:121">
<rect width="123.829" height="30" fill="white"/>
</clipPath>
</defs>
</svg>
