<svg width="770" height="350" viewBox="0 0 770 350" fill="none" xmlns="http://www.w3.org/2000/svg">
<rect x="1" y="1" width="768" height="348" rx="9" fill="#5232F8" fill-opacity="0.03" stroke="#E6EDF5" stroke-width="2" stroke-linecap="round" stroke-dasharray="8 10"/>
<path d="M433.701 190H337.098C334.756 190 333 188.235 333 185.882V124.118C333 121.765 334.756 120 337.098 120H433.408C435.75 120 437.507 121.765 437.507 124.118V185.882C437.799 188.235 436.043 190 433.701 190Z" fill="#E6EDF5"/>
<path d="M389.498 180.588H344.709L367.25 155.294L389.498 180.588Z" fill="#CED7E2"/>
<path d="M426.09 180.588H361.98L394.181 144.118L426.09 180.588Z" fill="white"/>
<path d="M361.689 145.882C366.377 145.882 370.178 142.064 370.178 137.353C370.178 132.642 366.377 128.823 361.689 128.823C357 128.823 353.199 132.642 353.199 137.353C353.199 142.064 357 145.882 361.689 145.882Z" fill="#CED7E2"/>
<path d="M268.334 225V214.5H271.559C273.409 214.5 274.769 214.97 275.639 215.91C276.519 216.85 276.959 218.14 276.959 219.78C276.959 221.39 276.519 222.665 275.639 223.605C274.769 224.535 273.409 225 271.559 225H268.334ZM269.594 223.95H271.529C272.549 223.95 273.359 223.785 273.959 223.455C274.569 223.115 275.004 222.635 275.264 222.015C275.524 221.385 275.654 220.64 275.654 219.78C275.654 218.9 275.524 218.145 275.264 217.515C275.004 216.885 274.569 216.4 273.959 216.06C273.359 215.72 272.549 215.55 271.529 215.55H269.594V223.95ZM278.103 225V217.56H279.243L279.348 218.985C279.578 218.495 279.928 218.105 280.398 217.815C280.868 217.525 281.448 217.38 282.138 217.38V218.7H281.793C281.353 218.7 280.948 218.78 280.578 218.94C280.208 219.09 279.913 219.35 279.693 219.72C279.473 220.09 279.363 220.6 279.363 221.25V225H278.103ZM285.427 225.18C284.807 225.18 284.292 225.075 283.882 224.865C283.472 224.655 283.167 224.375 282.967 224.025C282.767 223.675 282.667 223.295 282.667 222.885C282.667 222.125 282.957 221.54 283.537 221.13C284.117 220.72 284.907 220.515 285.907 220.515H287.917V220.425C287.917 219.775 287.747 219.285 287.407 218.955C287.067 218.615 286.612 218.445 286.042 218.445C285.552 218.445 285.127 218.57 284.767 218.82C284.417 219.06 284.197 219.415 284.107 219.885H282.817C282.867 219.345 283.047 218.89 283.357 218.52C283.677 218.15 284.072 217.87 284.542 217.68C285.012 217.48 285.512 217.38 286.042 217.38C287.082 217.38 287.862 217.66 288.382 218.22C288.912 218.77 289.177 219.505 289.177 220.425V225H288.052L287.977 223.665C287.767 224.085 287.457 224.445 287.047 224.745C286.647 225.035 286.107 225.18 285.427 225.18ZM285.622 224.115C286.102 224.115 286.512 223.99 286.852 223.74C287.202 223.49 287.467 223.165 287.647 222.765C287.827 222.365 287.917 221.945 287.917 221.505V221.49H286.012C285.272 221.49 284.747 221.62 284.437 221.88C284.137 222.13 283.987 222.445 283.987 222.825C283.987 223.215 284.127 223.53 284.407 223.77C284.697 224 285.102 224.115 285.622 224.115ZM293.408 222.66C292.988 222.66 292.603 222.605 292.253 222.495L291.503 223.2C291.613 223.28 291.748 223.35 291.908 223.41C292.078 223.46 292.318 223.51 292.628 223.56C292.938 223.6 293.373 223.645 293.933 223.695C294.933 223.765 295.648 223.995 296.078 224.385C296.508 224.775 296.723 225.285 296.723 225.915C296.723 226.345 296.603 226.755 296.363 227.145C296.133 227.535 295.773 227.855 295.283 228.105C294.803 228.355 294.183 228.48 293.423 228.48C292.753 228.48 292.158 228.39 291.638 228.21C291.118 228.04 290.713 227.775 290.423 227.415C290.133 227.065 289.988 226.62 289.988 226.08C289.988 225.8 290.063 225.495 290.213 225.165C290.363 224.845 290.643 224.54 291.053 224.25C290.833 224.16 290.643 224.065 290.483 223.965C290.333 223.855 290.193 223.735 290.063 223.605V223.26L291.338 222C290.748 221.5 290.453 220.84 290.453 220.02C290.453 219.53 290.568 219.085 290.798 218.685C291.028 218.285 291.363 217.97 291.803 217.74C292.243 217.5 292.778 217.38 293.408 217.38C293.838 217.38 294.228 217.44 294.578 217.56H297.323V218.505L295.928 218.565C296.218 218.985 296.363 219.47 296.363 220.02C296.363 220.51 296.243 220.955 296.003 221.355C295.773 221.755 295.438 222.075 294.998 222.315C294.568 222.545 294.038 222.66 293.408 222.66ZM293.408 221.625C293.938 221.625 294.358 221.49 294.668 221.22C294.988 220.94 295.148 220.54 295.148 220.02C295.148 219.51 294.988 219.12 294.668 218.85C294.358 218.57 293.938 218.43 293.408 218.43C292.868 218.43 292.438 218.57 292.118 218.85C291.808 219.12 291.653 219.51 291.653 220.02C291.653 220.54 291.808 220.94 292.118 221.22C292.438 221.49 292.868 221.625 293.408 221.625ZM291.218 225.96C291.218 226.46 291.428 226.83 291.848 227.07C292.268 227.32 292.793 227.445 293.423 227.445C294.043 227.445 294.538 227.31 294.908 227.04C295.288 226.77 295.478 226.41 295.478 225.96C295.478 225.64 295.348 225.36 295.088 225.12C294.828 224.89 294.348 224.755 293.648 224.715C293.098 224.675 292.623 224.625 292.223 224.565C291.813 224.785 291.543 225.02 291.413 225.27C291.283 225.53 291.218 225.76 291.218 225.96ZM300.929 225L304.799 214.5H306.134L309.989 225H308.654L307.694 222.3H303.224L302.249 225H300.929ZM303.599 221.28H307.319L305.459 216.09L303.599 221.28ZM310.875 225V217.56H312.015L312.09 218.895C312.33 218.425 312.675 218.055 313.125 217.785C313.575 217.515 314.085 217.38 314.655 217.38C315.535 217.38 316.235 217.65 316.755 218.19C317.285 218.72 317.55 219.54 317.55 220.65V225H316.29V220.785C316.29 219.235 315.65 218.46 314.37 218.46C313.73 218.46 313.195 218.695 312.765 219.165C312.345 219.625 312.135 220.285 312.135 221.145V225H310.875ZM322.234 225.18C321.494 225.18 320.844 225.01 320.284 224.67C319.734 224.33 319.304 223.865 318.994 223.275C318.694 222.685 318.544 222.015 318.544 221.265C318.544 220.515 318.699 219.85 319.009 219.27C319.319 218.68 319.749 218.22 320.299 217.89C320.849 217.55 321.499 217.38 322.249 217.38C322.859 217.38 323.399 217.505 323.869 217.755C324.339 218.005 324.704 218.355 324.964 218.805V214.2H326.224V225H325.084L324.964 223.77C324.724 224.13 324.379 224.455 323.929 224.745C323.479 225.035 322.914 225.18 322.234 225.18ZM322.369 224.085C322.869 224.085 323.309 223.97 323.689 223.74C324.079 223.5 324.379 223.17 324.589 222.75C324.809 222.33 324.919 221.84 324.919 221.28C324.919 220.72 324.809 220.23 324.589 219.81C324.379 219.39 324.079 219.065 323.689 218.835C323.309 218.595 322.869 218.475 322.369 218.475C321.879 218.475 321.439 218.595 321.049 218.835C320.669 219.065 320.369 219.39 320.149 219.81C319.939 220.23 319.834 220.72 319.834 221.28C319.834 221.84 319.939 222.33 320.149 222.75C320.369 223.17 320.669 223.5 321.049 223.74C321.439 223.97 321.879 224.085 322.369 224.085ZM331.122 225V214.5H334.347C336.197 214.5 337.557 214.97 338.427 215.91C339.307 216.85 339.747 218.14 339.747 219.78C339.747 221.39 339.307 222.665 338.427 223.605C337.557 224.535 336.197 225 334.347 225H331.122ZM332.382 223.95H334.317C335.337 223.95 336.147 223.785 336.747 223.455C337.357 223.115 337.792 222.635 338.052 222.015C338.312 221.385 338.442 220.64 338.442 219.78C338.442 218.9 338.312 218.145 338.052 217.515C337.792 216.885 337.357 216.4 336.747 216.06C336.147 215.72 335.337 215.55 334.317 215.55H332.382V223.95ZM340.892 225V217.56H342.032L342.137 218.985C342.367 218.495 342.717 218.105 343.187 217.815C343.657 217.525 344.237 217.38 344.927 217.38V218.7H344.582C344.142 218.7 343.737 218.78 343.367 218.94C342.997 219.09 342.702 219.35 342.482 219.72C342.262 220.09 342.152 220.6 342.152 221.25V225H340.892ZM348.853 225.18C348.153 225.18 347.523 225.02 346.963 224.7C346.403 224.38 345.958 223.93 345.628 223.35C345.308 222.76 345.148 222.07 345.148 221.28C345.148 220.49 345.313 219.805 345.643 219.225C345.973 218.635 346.418 218.18 346.978 217.86C347.548 217.54 348.183 217.38 348.883 217.38C349.583 217.38 350.213 217.54 350.773 217.86C351.333 218.18 351.773 218.635 352.093 219.225C352.423 219.805 352.588 220.49 352.588 221.28C352.588 222.07 352.423 222.76 352.093 223.35C351.763 223.93 351.313 224.38 350.743 224.7C350.183 225.02 349.553 225.18 348.853 225.18ZM348.853 224.1C349.283 224.1 349.683 223.995 350.053 223.785C350.423 223.575 350.723 223.26 350.953 222.84C351.183 222.42 351.298 221.9 351.298 221.28C351.298 220.66 351.183 220.14 350.953 219.72C350.733 219.3 350.438 218.985 350.068 218.775C349.698 218.565 349.303 218.46 348.883 218.46C348.453 218.46 348.053 218.565 347.683 218.775C347.313 218.985 347.013 219.3 346.783 219.72C346.553 220.14 346.438 220.66 346.438 221.28C346.438 221.9 346.553 222.42 346.783 222.84C347.013 223.26 347.308 223.575 347.668 223.785C348.038 223.995 348.433 224.1 348.853 224.1ZM353.74 228.3V217.56H354.88L355 218.79C355.24 218.43 355.58 218.105 356.02 217.815C356.47 217.525 357.04 217.38 357.73 217.38C358.47 217.38 359.115 217.55 359.665 217.89C360.215 218.23 360.64 218.695 360.94 219.285C361.25 219.875 361.405 220.545 361.405 221.295C361.405 222.045 361.25 222.715 360.94 223.305C360.64 223.885 360.21 224.345 359.65 224.685C359.1 225.015 358.455 225.18 357.715 225.18C357.105 225.18 356.56 225.055 356.08 224.805C355.61 224.555 355.25 224.205 355 223.755V228.3H353.74ZM357.58 224.085C358.08 224.085 358.52 223.97 358.9 223.74C359.28 223.5 359.58 223.17 359.8 222.75C360.02 222.33 360.13 221.84 360.13 221.28C360.13 220.72 360.02 220.23 359.8 219.81C359.58 219.39 359.28 219.065 358.9 218.835C358.52 218.595 358.08 218.475 357.58 218.475C357.08 218.475 356.64 218.595 356.26 218.835C355.88 219.065 355.58 219.39 355.36 219.81C355.14 220.23 355.03 220.72 355.03 221.28C355.03 221.84 355.14 222.33 355.36 222.75C355.58 223.17 355.88 223.5 356.26 223.74C356.64 223.97 357.08 224.085 357.58 224.085ZM369.318 225.18C368.618 225.18 367.988 225.02 367.428 224.7C366.868 224.38 366.423 223.93 366.093 223.35C365.773 222.76 365.613 222.07 365.613 221.28C365.613 220.49 365.778 219.805 366.108 219.225C366.438 218.635 366.883 218.18 367.443 217.86C368.013 217.54 368.648 217.38 369.348 217.38C370.048 217.38 370.678 217.54 371.238 217.86C371.798 218.18 372.238 218.635 372.558 219.225C372.888 219.805 373.053 220.49 373.053 221.28C373.053 222.07 372.888 222.76 372.558 223.35C372.228 223.93 371.778 224.38 371.208 224.7C370.648 225.02 370.018 225.18 369.318 225.18ZM369.318 224.1C369.748 224.1 370.148 223.995 370.518 223.785C370.888 223.575 371.188 223.26 371.418 222.84C371.648 222.42 371.763 221.9 371.763 221.28C371.763 220.66 371.648 220.14 371.418 219.72C371.198 219.3 370.903 218.985 370.533 218.775C370.163 218.565 369.768 218.46 369.348 218.46C368.918 218.46 368.518 218.565 368.148 218.775C367.778 218.985 367.478 219.3 367.248 219.72C367.018 220.14 366.903 220.66 366.903 221.28C366.903 221.9 367.018 222.42 367.248 222.84C367.478 223.26 367.773 223.575 368.133 223.785C368.503 223.995 368.898 224.1 369.318 224.1ZM374.205 225V217.56H375.345L375.45 218.985C375.68 218.495 376.03 218.105 376.5 217.815C376.97 217.525 377.55 217.38 378.24 217.38V218.7H377.895C377.455 218.7 377.05 218.78 376.68 218.94C376.31 219.09 376.015 219.35 375.795 219.72C375.575 220.09 375.465 220.6 375.465 221.25V225H374.205ZM387.104 225.18C386.074 225.18 385.184 224.955 384.434 224.505C383.694 224.045 383.119 223.41 382.709 222.6C382.299 221.78 382.094 220.83 382.094 219.75C382.094 218.68 382.299 217.74 382.709 216.93C383.119 216.11 383.694 215.47 384.434 215.01C385.184 214.55 386.074 214.32 387.104 214.32C388.304 214.32 389.279 214.61 390.029 215.19C390.789 215.76 391.274 216.56 391.484 217.59H390.089C389.929 216.94 389.599 216.42 389.099 216.03C388.609 215.63 387.944 215.43 387.104 215.43C386.354 215.43 385.699 215.605 385.139 215.955C384.579 216.295 384.144 216.79 383.834 217.44C383.534 218.08 383.384 218.85 383.384 219.75C383.384 220.65 383.534 221.425 383.834 222.075C384.144 222.715 384.579 223.21 385.139 223.56C385.699 223.9 386.354 224.07 387.104 224.07C387.944 224.07 388.609 223.88 389.099 223.5C389.599 223.11 389.929 222.595 390.089 221.955H391.484C391.274 222.965 390.789 223.755 390.029 224.325C389.279 224.895 388.304 225.18 387.104 225.18ZM392.62 225V214.2H393.88V225H392.62ZM396.11 215.91C395.86 215.91 395.65 215.83 395.48 215.67C395.32 215.5 395.24 215.29 395.24 215.04C395.24 214.8 395.32 214.6 395.48 214.44C395.65 214.28 395.86 214.2 396.11 214.2C396.35 214.2 396.555 214.28 396.725 214.44C396.895 214.6 396.98 214.8 396.98 215.04C396.98 215.29 396.895 215.5 396.725 215.67C396.555 215.83 396.35 215.91 396.11 215.91ZM395.48 225V217.56H396.74V225H395.48ZM401.754 225.18C401.044 225.18 400.404 225.02 399.834 224.7C399.274 224.37 398.829 223.915 398.499 223.335C398.179 222.745 398.019 222.06 398.019 221.28C398.019 220.5 398.179 219.82 398.499 219.24C398.829 218.65 399.274 218.195 399.834 217.875C400.404 217.545 401.044 217.38 401.754 217.38C402.634 217.38 403.374 217.61 403.974 218.07C404.584 218.53 404.969 219.145 405.129 219.915H403.839C403.739 219.455 403.494 219.1 403.104 218.85C402.714 218.59 402.259 218.46 401.739 218.46C401.319 218.46 400.924 218.565 400.554 218.775C400.184 218.985 399.884 219.3 399.654 219.72C399.424 220.14 399.309 220.66 399.309 221.28C399.309 221.9 399.424 222.42 399.654 222.84C399.884 223.26 400.184 223.58 400.554 223.8C400.924 224.01 401.319 224.115 401.739 224.115C402.259 224.115 402.714 223.99 403.104 223.74C403.494 223.48 403.739 223.115 403.839 222.645H405.129C404.979 223.395 404.599 224.005 403.989 224.475C403.379 224.945 402.634 225.18 401.754 225.18ZM406.289 225V214.2H407.549V220.695L410.594 217.56H412.139L408.839 220.92L412.559 225H410.954L407.549 221.145V225H406.289ZM419.152 225V215.535H416.017V214.5H423.547V215.535H420.412V225H419.152ZM426.453 225.18C425.753 225.18 425.123 225.02 424.563 224.7C424.003 224.38 423.558 223.93 423.228 223.35C422.908 222.76 422.748 222.07 422.748 221.28C422.748 220.49 422.913 219.805 423.243 219.225C423.573 218.635 424.018 218.18 424.578 217.86C425.148 217.54 425.783 217.38 426.483 217.38C427.183 217.38 427.813 217.54 428.373 217.86C428.933 218.18 429.373 218.635 429.693 219.225C430.023 219.805 430.188 220.49 430.188 221.28C430.188 222.07 430.023 222.76 429.693 223.35C429.363 223.93 428.913 224.38 428.343 224.7C427.783 225.02 427.153 225.18 426.453 225.18ZM426.453 224.1C426.883 224.1 427.283 223.995 427.653 223.785C428.023 223.575 428.323 223.26 428.553 222.84C428.783 222.42 428.898 221.9 428.898 221.28C428.898 220.66 428.783 220.14 428.553 219.72C428.333 219.3 428.038 218.985 427.668 218.775C427.298 218.565 426.903 218.46 426.483 218.46C426.053 218.46 425.653 218.565 425.283 218.775C424.913 218.985 424.613 219.3 424.383 219.72C424.153 220.14 424.038 220.66 424.038 221.28C424.038 221.9 424.153 222.42 424.383 222.84C424.613 223.26 424.908 223.575 425.268 223.785C425.638 223.995 426.033 224.1 426.453 224.1ZM434.125 225L437.995 214.5H439.33L443.185 225H441.85L440.89 222.3H436.42L435.445 225H434.125ZM436.795 221.28H440.515L438.655 216.09L436.795 221.28ZM447.035 225.18C446.295 225.18 445.645 225.01 445.085 224.67C444.535 224.33 444.105 223.865 443.795 223.275C443.495 222.685 443.345 222.015 443.345 221.265C443.345 220.515 443.5 219.85 443.81 219.27C444.12 218.68 444.55 218.22 445.1 217.89C445.65 217.55 446.3 217.38 447.05 217.38C447.66 217.38 448.2 217.505 448.67 217.755C449.14 218.005 449.505 218.355 449.765 218.805V214.2H451.025V225H449.885L449.765 223.77C449.525 224.13 449.18 224.455 448.73 224.745C448.28 225.035 447.715 225.18 447.035 225.18ZM447.17 224.085C447.67 224.085 448.11 223.97 448.49 223.74C448.88 223.5 449.18 223.17 449.39 222.75C449.61 222.33 449.72 221.84 449.72 221.28C449.72 220.72 449.61 220.23 449.39 219.81C449.18 219.39 448.88 219.065 448.49 218.835C448.11 218.595 447.67 218.475 447.17 218.475C446.68 218.475 446.24 218.595 445.85 218.835C445.47 219.065 445.17 219.39 444.95 219.81C444.74 220.23 444.635 220.72 444.635 221.28C444.635 221.84 444.74 222.33 444.95 222.75C445.17 223.17 445.47 223.5 445.85 223.74C446.24 223.97 446.68 224.085 447.17 224.085ZM455.854 225.18C455.114 225.18 454.464 225.01 453.904 224.67C453.354 224.33 452.924 223.865 452.614 223.275C452.314 222.685 452.164 222.015 452.164 221.265C452.164 220.515 452.319 219.85 452.629 219.27C452.939 218.68 453.369 218.22 453.919 217.89C454.469 217.55 455.119 217.38 455.869 217.38C456.479 217.38 457.019 217.505 457.489 217.755C457.959 218.005 458.324 218.355 458.584 218.805V214.2H459.844V225H458.704L458.584 223.77C458.344 224.13 457.999 224.455 457.549 224.745C457.099 225.035 456.534 225.18 455.854 225.18ZM455.989 224.085C456.489 224.085 456.929 223.97 457.309 223.74C457.699 223.5 457.999 223.17 458.209 222.75C458.429 222.33 458.539 221.84 458.539 221.28C458.539 220.72 458.429 220.23 458.209 219.81C457.999 219.39 457.699 219.065 457.309 218.835C456.929 218.595 456.489 218.475 455.989 218.475C455.499 218.475 455.059 218.595 454.669 218.835C454.289 219.065 453.989 219.39 453.769 219.81C453.559 220.23 453.454 220.72 453.454 221.28C453.454 221.84 453.559 222.33 453.769 222.75C453.989 223.17 454.289 223.5 454.669 223.74C455.059 223.97 455.499 224.085 455.989 224.085ZM464.743 225V214.5H466.003V225H464.743ZM467.554 225V217.56H468.694L468.784 218.64C469.024 218.24 469.344 217.93 469.744 217.71C470.144 217.49 470.594 217.38 471.094 217.38C471.684 217.38 472.189 217.5 472.609 217.74C473.039 217.98 473.369 218.345 473.599 218.835C473.859 218.385 474.214 218.03 474.664 217.77C475.124 217.51 475.619 217.38 476.149 217.38C477.039 217.38 477.749 217.65 478.279 218.19C478.809 218.72 479.074 219.54 479.074 220.65V225H477.829V220.785C477.829 220.015 477.674 219.435 477.364 219.045C477.054 218.655 476.609 218.46 476.029 218.46C475.429 218.46 474.929 218.695 474.529 219.165C474.139 219.625 473.944 220.285 473.944 221.145V225H472.684V220.785C472.684 220.015 472.529 219.435 472.219 219.045C471.909 218.655 471.464 218.46 470.884 218.46C470.294 218.46 469.799 218.695 469.399 219.165C469.009 219.625 468.814 220.285 468.814 221.145V225H467.554ZM482.847 225.18C482.227 225.18 481.712 225.075 481.302 224.865C480.892 224.655 480.587 224.375 480.387 224.025C480.187 223.675 480.087 223.295 480.087 222.885C480.087 222.125 480.377 221.54 480.957 221.13C481.537 220.72 482.327 220.515 483.327 220.515H485.337V220.425C485.337 219.775 485.167 219.285 484.827 218.955C484.487 218.615 484.032 218.445 483.462 218.445C482.972 218.445 482.547 218.57 482.187 218.82C481.837 219.06 481.617 219.415 481.527 219.885H480.237C480.287 219.345 480.467 218.89 480.777 218.52C481.097 218.15 481.492 217.87 481.962 217.68C482.432 217.48 482.932 217.38 483.462 217.38C484.502 217.38 485.282 217.66 485.802 218.22C486.332 218.77 486.597 219.505 486.597 220.425V225H485.472L485.397 223.665C485.187 224.085 484.877 224.445 484.467 224.745C484.067 225.035 483.527 225.18 482.847 225.18ZM483.042 224.115C483.522 224.115 483.932 223.99 484.272 223.74C484.622 223.49 484.887 223.165 485.067 222.765C485.247 222.365 485.337 221.945 485.337 221.505V221.49H483.432C482.692 221.49 482.167 221.62 481.857 221.88C481.557 222.13 481.407 222.445 481.407 222.825C481.407 223.215 481.547 223.53 481.827 223.77C482.117 224 482.522 224.115 483.042 224.115ZM490.828 222.66C490.408 222.66 490.023 222.605 489.673 222.495L488.923 223.2C489.033 223.28 489.168 223.35 489.328 223.41C489.498 223.46 489.738 223.51 490.048 223.56C490.358 223.6 490.793 223.645 491.353 223.695C492.353 223.765 493.068 223.995 493.498 224.385C493.928 224.775 494.143 225.285 494.143 225.915C494.143 226.345 494.023 226.755 493.783 227.145C493.553 227.535 493.193 227.855 492.703 228.105C492.223 228.355 491.603 228.48 490.843 228.48C490.173 228.48 489.578 228.39 489.058 228.21C488.538 228.04 488.133 227.775 487.843 227.415C487.553 227.065 487.408 226.62 487.408 226.08C487.408 225.8 487.483 225.495 487.633 225.165C487.783 224.845 488.063 224.54 488.473 224.25C488.253 224.16 488.063 224.065 487.903 223.965C487.753 223.855 487.613 223.735 487.483 223.605V223.26L488.758 222C488.168 221.5 487.873 220.84 487.873 220.02C487.873 219.53 487.988 219.085 488.218 218.685C488.448 218.285 488.783 217.97 489.223 217.74C489.663 217.5 490.198 217.38 490.828 217.38C491.258 217.38 491.648 217.44 491.998 217.56H494.743V218.505L493.348 218.565C493.638 218.985 493.783 219.47 493.783 220.02C493.783 220.51 493.663 220.955 493.423 221.355C493.193 221.755 492.858 222.075 492.418 222.315C491.988 222.545 491.458 222.66 490.828 222.66ZM490.828 221.625C491.358 221.625 491.778 221.49 492.088 221.22C492.408 220.94 492.568 220.54 492.568 220.02C492.568 219.51 492.408 219.12 492.088 218.85C491.778 218.57 491.358 218.43 490.828 218.43C490.288 218.43 489.858 218.57 489.538 218.85C489.228 219.12 489.073 219.51 489.073 220.02C489.073 220.54 489.228 220.94 489.538 221.22C489.858 221.49 490.288 221.625 490.828 221.625ZM488.638 225.96C488.638 226.46 488.848 226.83 489.268 227.07C489.688 227.32 490.213 227.445 490.843 227.445C491.463 227.445 491.958 227.31 492.328 227.04C492.708 226.77 492.898 226.41 492.898 225.96C492.898 225.64 492.768 225.36 492.508 225.12C492.248 224.89 491.768 224.755 491.068 224.715C490.518 224.675 490.043 224.625 489.643 224.565C489.233 224.785 488.963 225.02 488.833 225.27C488.703 225.53 488.638 225.76 488.638 225.96ZM498.616 225.18C497.906 225.18 497.276 225.02 496.726 224.7C496.176 224.37 495.741 223.915 495.421 223.335C495.111 222.755 494.956 222.07 494.956 221.28C494.956 220.5 495.111 219.82 495.421 219.24C495.731 218.65 496.161 218.195 496.711 217.875C497.271 217.545 497.916 217.38 498.646 217.38C499.366 217.38 499.986 217.545 500.506 217.875C501.036 218.195 501.441 218.62 501.721 219.15C502.001 219.68 502.141 220.25 502.141 220.86C502.141 220.97 502.136 221.08 502.126 221.19C502.126 221.3 502.126 221.425 502.126 221.565H496.201C496.231 222.135 496.361 222.61 496.591 222.99C496.831 223.36 497.126 223.64 497.476 223.83C497.836 224.02 498.216 224.115 498.616 224.115C499.136 224.115 499.571 223.995 499.921 223.755C500.271 223.515 500.526 223.19 500.686 222.78H501.931C501.731 223.47 501.346 224.045 500.776 224.505C500.216 224.955 499.496 225.18 498.616 225.18ZM498.616 218.445C498.016 218.445 497.481 218.63 497.011 219C496.551 219.36 496.286 219.89 496.216 220.59H500.896C500.866 219.92 500.636 219.395 500.206 219.015C499.776 218.635 499.246 218.445 498.616 218.445Z" fill="#9BA4BB"/>
</svg>
