<svg width="404" height="600" viewBox="0 0 404 600" fill="none" xmlns="http://www.w3.org/2000/svg">
<path d="M289.034 360.789C237.899 411.924 242.888 429.384 245.382 459.94C247.877 489.872 182.088 495.796 204.537 560.338H190.507C190.507 560.338 96.9683 543.501 108.193 496.108C119.417 448.715 189.883 504.215 191.13 470.541C192.377 436.867 145.608 395.087 164.316 376.379C183.024 357.671 193.001 419.407 221.686 403.193C250.371 386.98 202.355 344.576 209.838 314.644C217.321 284.712 237.276 318.385 274.068 330.857C308.053 342.394 287.475 253.844 314.601 263.51C320.213 286.271 323.643 326.492 289.034 360.789Z" fill="#BDDCFD"/>
<path d="M327.073 427.514C317.095 458.693 238.523 476.154 269.703 500.474C300.882 524.794 272.821 560.338 272.821 560.338H204.538C182.088 495.797 247.877 489.873 245.383 459.94C242.888 429.384 237.9 411.924 289.034 360.79C323.331 326.492 320.213 286.271 314.601 263.51C317.095 264.445 319.59 266.004 322.708 268.498C361.994 299.054 313.354 359.542 303.376 373.885C293.399 388.228 337.05 396.334 327.073 427.514Z" fill="#E4ECF4"/>
<path d="M197.366 471.476C191.442 477.088 192.065 489.872 192.377 494.549C190.507 497.667 187.7 503.591 186.765 507.956C184.894 503.902 182.4 499.537 179.282 495.796C176.476 492.366 174.293 488.625 172.734 485.507C171.799 481.141 170.863 477.712 168.681 473.97C166.498 463.681 168.369 454.951 169.928 449.962C175.229 447.156 178.97 444.662 183.023 439.049C187.7 432.502 175.54 421.901 169.928 428.76C164.628 434.996 167.434 448.403 168.057 450.897C166.81 455.574 165.251 462.434 166.187 470.54C165.563 469.917 165.251 469.293 164.628 468.67C159.015 461.81 144.049 471.788 149.661 479.894C154.338 486.754 167.746 488.313 171.799 488.313C173.358 491.431 175.54 494.549 177.723 497.667C187.077 509.203 190.195 523.234 191.13 535.082C188.948 533.211 185.83 531.964 183.335 530.717C179.594 524.481 176.476 520.428 169.304 516.374C161.821 511.697 150.909 526.352 159.015 531.964C165.563 536.641 178.347 533.523 182.712 532.588C185.83 533.835 189.883 535.706 191.13 537.888C191.754 551.295 189.259 561.584 189.259 561.896C189.259 562.52 189.571 562.832 189.883 563.143C189.883 563.143 189.883 563.143 190.195 563.143C190.507 563.143 191.13 562.832 191.13 562.52C191.13 562.208 197.366 536.641 188.012 512.633C187.077 510.138 190.507 502.344 193.624 496.731C200.484 494.237 205.161 492.054 210.773 485.818C216.697 478.024 204.537 464.616 197.366 471.476Z" fill="#E4ECF4"/>
<path d="M222.621 560.337C223.245 561.273 338.609 560.337 338.609 560.337C338.609 560.337 358.564 536.017 324.89 518.245C305.87 508.268 338.921 489.56 328.631 469.917C318.342 450.274 296.828 475.529 288.098 458.069C279.056 440.608 260.348 401.322 252.554 425.954C244.759 450.274 282.486 465.552 257.854 483.636C232.911 501.72 202.355 511.074 232.599 517.622C262.843 524.169 206.408 535.706 222.621 560.337Z" fill="#BDDCFD"/>
<path d="M371.347 492.366C362.929 492.99 355.134 503.591 352.64 507.333C349.21 508.58 343.286 511.386 339.544 514.192C340.792 509.515 341.415 504.838 341.415 499.85C341.415 497.043 341.727 494.549 342.039 492.055C348.275 494.237 353.263 495.173 361.058 493.925C370.1 492.366 369.165 473.971 358.876 474.906C353.575 475.218 348.275 479.895 344.533 484.26C345.78 481.454 346.716 478.959 347.027 475.841C352.016 466.176 358.876 460.563 363.552 457.446C369.477 458.693 374.154 459.005 381.013 457.134C388.808 454.951 386.002 438.738 377.271 440.297C369.165 441.856 362.617 454.328 361.682 456.51C357.628 459.316 352.328 463.993 347.651 470.853C347.651 469.917 347.651 469.294 347.651 468.358C347.651 459.316 329.255 457.446 328.32 467.423C327.696 475.841 337.362 485.507 340.48 488.625C339.856 492.055 339.544 495.796 339.233 499.85C339.233 500.785 339.233 502.032 339.233 502.968C338.921 499.85 338.297 496.732 337.05 493.302C333.932 484.883 316.16 489.249 318.654 499.226C320.837 507.021 332.373 512.633 336.738 514.816C336.738 514.816 337.362 520.74 326.137 538.512C325.825 535.706 324.266 532.588 322.707 530.094C323.643 522.922 323.955 517.622 320.837 509.515C317.719 501.097 299.946 505.462 302.441 515.439C304.623 523.546 316.783 529.158 320.837 531.029C322.396 534.147 324.578 538.2 323.955 540.695C323.955 540.695 323.955 540.695 323.955 541.006C315.848 551.919 307.118 558.467 307.118 558.779C306.806 559.091 306.494 559.714 306.806 560.026C306.806 560.026 306.806 560.026 307.118 560.338C307.429 560.649 308.053 560.649 308.365 560.338C308.677 560.026 329.879 543.813 337.985 518.869C338.921 516.063 346.716 512.321 352.64 509.827C359.499 512.321 364.8 513.257 373.218 512.01C382.572 510.139 381.637 491.743 371.347 492.366Z" fill="#E4ECF4"/>
<path d="M390.678 25.9219L76.7013 0.042998C70.7772 -0.580591 64.2295 5.6553 61.4234 13.762L21.8255 136.297C19.3311 144.404 21.5137 151.887 27.126 153.134L326.761 222.041C336.114 224.223 346.404 217.364 349.833 207.075L402.215 46.1886C405.333 35.8994 400.344 26.8573 390.678 25.9219Z" fill="url(#paint0_linear_168:1038)"/>
<path opacity="0.55" d="M76.3895 26.2341C97.9034 27.4812 119.417 27.1695 144.361 19.3746C149.661 17.8156 155.585 15.6331 161.509 12.8269L73.8952 5.34383C70.1536 5.03204 66.1003 8.77357 64.5413 13.7623L60.7998 25.2987C65.7885 25.6105 71.089 25.9223 76.3895 26.2341Z" fill="white"/>
<path opacity="0.18" d="M325.202 139.415C275.626 166.853 221.686 175.272 176.787 179.949C174.605 180.26 172.422 180.26 170.24 180.572L325.513 215.805C333.932 217.676 342.974 211.752 346.092 202.398L380.701 95.7642C364.8 113.225 345.78 127.879 325.202 139.415Z" fill="#55358D"/>
<path d="M95.0971 60.8427C95.7207 60.2191 96.9679 60.2191 98.215 60.2191C100.709 60.5309 103.204 61.7781 106.01 64.2724L112.246 54.6068C109.128 51.8007 105.698 50.2417 101.957 49.9299C97.9033 49.3063 94.1617 50.2417 91.0438 52.4242C87.9258 54.6068 85.7433 58.0365 84.1843 62.4017C83.5607 64.896 82.9371 66.7668 82.9371 68.6376C82.9371 70.5083 83.2489 72.0673 83.8725 73.6263C84.4961 75.1852 85.7433 76.7442 87.614 78.3032C89.7966 80.174 91.0438 81.4211 91.3556 82.0447C91.6674 82.6683 91.9792 83.2919 92.291 83.6037C92.291 84.2273 92.291 84.8509 91.9792 85.4745C91.6674 86.4098 91.0438 87.3452 90.1084 87.9688C89.173 88.5924 87.9258 88.5924 86.6786 88.5924C85.1197 88.2806 83.2489 87.657 81.6899 86.7216C80.131 85.7863 78.572 84.5391 77.013 82.9801L73.2715 94.5165C74.5187 95.7637 76.0776 97.0109 77.3248 97.6344C78.8838 98.258 80.7546 98.8816 82.9371 99.1934C85.7433 99.5052 88.5494 99.5052 91.0438 98.5698C93.5381 97.6344 95.7207 96.0755 97.5915 93.8929C99.4622 91.7104 101.021 89.216 101.957 86.098C102.892 82.9801 103.204 80.174 102.892 77.6796C102.268 75.497 100.709 73.0027 98.215 70.8201C95.7207 68.3258 94.1617 66.7668 93.5381 65.8314C92.9145 64.896 92.9145 63.9606 93.2263 63.0253C93.8499 62.0899 94.4735 61.1545 95.0971 60.8427Z" fill="white"/>
<path d="M118.794 52.4243L102.892 101.064L112.87 102.623L128.771 53.3597L118.794 52.4243Z" fill="white"/>
<path d="M142.802 87.6572L149.661 88.5926L147.167 96.3874C145.608 96.6992 144.361 96.6992 142.49 96.3874C139.684 96.0756 137.813 94.5167 137.189 91.7105C136.566 88.9044 136.878 85.4746 138.437 80.7977C139.996 76.1208 141.866 72.3792 144.361 70.1967C146.855 67.7023 149.661 66.7669 152.779 67.0787C156.209 67.3905 159.015 68.6377 161.198 70.8203L168.057 60.5311C166.81 59.2839 164.939 58.3485 163.068 57.7249C160.886 56.7895 158.703 56.1659 156.209 56.1659C149.661 55.5423 144.049 57.1013 139.06 61.1546C134.071 65.208 130.33 71.1321 127.836 79.2387C125.029 87.3454 124.718 93.8931 126.588 98.8818C128.459 103.87 132.201 106.677 138.125 107.612C143.737 108.547 149.038 108.236 154.338 106.988L163.38 79.5505L146.231 77.368L142.802 87.6572Z" fill="white"/>
<path d="M212.332 63.0255L207.966 62.4019L206.407 67.0788L200.172 86.0983C199.236 89.2162 197.989 93.5814 196.43 98.8819H196.118L193.936 75.8091L192.377 60.5311L177.722 58.9722L164.627 99.5055L161.197 110.106L170.863 111.665L178.346 88.2809C178.346 87.9691 178.658 87.6573 178.658 87.6573C179.593 84.5393 180.84 80.486 182.087 75.1855H182.399L183.023 83.9157L185.517 113.848L200.483 116.342L217.632 63.3373L212.332 63.0255Z" fill="white"/>
<path d="M271.261 69.573L265.649 86.4099L262.843 94.8284L260.66 101.688C259.413 105.741 257.854 108.547 256.295 110.106C254.424 111.665 252.553 112.289 249.747 111.977C247.253 111.665 246.006 110.418 245.07 108.547C244.447 106.677 244.758 103.87 246.006 99.8171L256.295 67.7023L243.823 66.4551L233.222 99.1935C231.039 106.365 230.728 111.977 232.91 116.342C235.093 120.707 239.146 123.202 245.382 124.137C249.435 124.761 252.553 124.761 255.983 123.825C258.166 123.202 260.348 122.266 262.219 121.019L262.531 120.707C265.649 118.525 268.143 115.719 270.014 111.977C271.261 109.795 272.196 107.3 273.132 104.494L275.002 98.5699L284.045 70.8202L271.261 69.573Z" fill="white"/>
<path d="M324.578 80.4856C322.395 77.0558 318.03 74.8733 311.794 74.2497L294.645 72.3789L282.797 108.547L278.12 122.578L276.25 128.502L283.733 129.749L289.657 130.684L292.775 121.331L295.893 111.977L299.634 112.6C305.558 113.536 310.859 112.289 315.536 109.482C316.159 109.171 316.783 108.547 317.406 107.923C317.718 107.612 318.03 107.3 318.342 106.988C321.46 104.182 323.642 100.129 325.201 95.1399C327.072 88.5922 326.76 83.9153 324.578 80.4856ZM303.687 86.0979L307.117 86.4097C310.859 86.7215 312.106 88.904 310.859 92.9573C310.235 95.1399 308.988 97.0107 307.429 98.2578C305.87 99.505 303.999 99.8168 301.817 99.505L299.322 99.1932L303.687 86.0979Z" fill="white"/>
<path d="M168.993 147.21C169.616 147.21 171.487 156.252 173.046 157.499C174.605 158.435 175.852 159.37 175.54 160.305C175.228 160.929 174.293 160.929 174.293 161.864C174.293 162.8 174.917 165.294 174.917 165.294C174.917 165.294 170.863 179.013 167.745 179.637C164.627 180.572 164.004 180.26 163.692 182.443C163.38 184.937 172.422 194.291 172.422 194.291C172.422 194.291 163.692 200.215 151.22 197.097C138.437 194.291 151.22 180.26 151.844 174.336C153.091 168.412 163.692 146.275 168.993 147.21Z" fill="#FFBDB0"/>
<path d="M161.509 156.252C161.509 156.252 166.81 166.853 169.304 167.789C171.799 168.724 175.228 163.735 175.228 163.735C175.228 163.735 180.841 177.454 173.046 179.013C164.939 180.572 164.939 180.572 164.939 180.572C164.939 180.572 169.304 174.336 167.122 171.53C164.939 169.036 160.574 170.283 160.574 170.283C160.574 170.283 160.886 185.561 152.155 179.949C143.425 174.336 125.653 166.542 136.254 155.629C146.855 144.404 149.349 150.328 155.897 141.286C162.445 132.244 156.832 124.137 166.81 129.75C177.099 135.362 182.711 153.446 161.509 156.252Z" fill="#202234"/>
<path d="M175.54 170.595C174.605 170.907 173.358 170.283 173.358 170.283C173.046 170.283 173.046 169.972 173.358 169.66C173.358 169.348 173.67 169.348 173.981 169.66C174.293 169.66 174.917 169.972 175.229 169.972C175.54 169.972 175.852 169.348 175.852 168.724C175.852 168.413 176.164 168.413 176.476 168.413C176.788 168.413 176.788 168.724 176.788 169.036C176.476 169.66 176.164 170.283 175.54 170.595Z" fill="white"/>
<path d="M167.745 156.876C167.745 156.876 171.175 156.253 171.487 155.629C171.799 155.317 170.551 154.694 168.992 155.317C167.745 155.941 167.433 156.876 167.745 156.876Z" fill="#202234"/>
<path d="M171.175 157.811C171.487 158.435 171.175 159.058 170.552 159.058C169.928 159.058 169.616 158.746 169.304 158.435C168.993 157.811 169.304 157.188 169.928 157.188H170.24C170.24 157.188 169.928 157.499 169.928 157.811C169.928 158.123 170.24 158.123 170.552 158.123C171.175 158.123 171.175 157.811 171.175 157.811Z" fill="#202234"/>
<path d="M82.0017 554.725C81.3781 555.973 78.2601 572.809 78.2601 572.809C78.2601 572.809 80.4427 583.099 79.8191 584.034C79.1955 584.969 72.0243 574.368 72.336 570.315C72.6478 566.262 72.336 553.79 72.336 553.79L82.0017 554.725Z" fill="#FF97A6"/>
<path d="M69.8418 573.121C69.8418 573.121 71.4008 568.133 72.3362 569.068C73.2715 570.003 78.2603 581.852 79.8192 583.411C81.3782 584.658 82.6254 583.722 82.9372 584.97C82.9372 586.217 79.5074 587.776 78.2603 586.84C76.7013 585.593 68.5946 577.486 69.8418 573.121Z" fill="#2B3E6D"/>
<path d="M71.7123 566.885C71.7123 566.885 78.5718 565.95 79.819 566.885C80.7544 567.821 78.8836 572.81 78.8836 572.81C78.8836 572.81 82.0016 584.658 80.4426 584.658C78.8836 584.658 72.9595 574.992 72.0241 572.498C71.4006 570.003 69.5298 574.369 69.5298 574.057C69.8416 574.057 71.7123 566.885 71.7123 566.885Z" fill="#2B3E6D"/>
<path d="M78.8836 586.529L78.5719 586.84C78.5719 586.84 77.0129 587.464 74.8303 586.217C72.9595 584.97 68.2826 575.928 69.5298 574.057C70.777 572.186 72.6477 576.239 72.6477 576.239C72.6477 576.239 78.2601 584.658 78.8836 586.529Z" fill="#242650"/>
<path d="M71.0885 562.52C71.0885 562.52 77.3244 566.262 82.9367 561.585C82.9367 561.585 121.911 463.058 129.706 392.904C131.577 375.132 131.577 358.919 128.459 347.07C125.029 334.287 120.04 326.804 114.116 323.062C104.451 316.826 92.6023 320.568 82.9367 326.804C76.389 330.857 70.4649 335.846 66.7234 339.587C63.6054 342.393 62.0465 344.576 62.0465 344.576C62.0465 344.888 61.7347 346.759 61.1111 350.188C60.4875 354.553 59.8639 361.101 58.9285 369.52C54.5634 413.483 49.5747 506.397 71.0885 562.52Z" fill="#1D2149"/>
<path d="M178.97 567.51C178.658 568.757 180.529 585.906 180.529 585.906C180.529 585.906 185.518 595.259 185.206 596.195C184.894 597.13 174.917 589.024 173.981 584.97C173.046 580.917 169.304 569.381 169.304 569.381L178.97 567.51Z" fill="#FF97A6"/>
<path d="M172.734 588.712C172.734 588.712 172.734 583.411 173.981 584.035C175.228 584.658 183.335 594.636 185.206 595.571C187.076 596.507 188.012 594.948 188.324 596.195C188.635 597.442 185.829 599.936 184.27 599.313C182.711 598.377 172.734 593.077 172.734 588.712Z" fill="#2B3E6D"/>
<path d="M172.734 581.54C173.046 581.54 179.906 579.669 180.841 581.228C181.776 582.787 181.465 584.97 181.465 584.97C181.465 584.97 186.141 594.635 186.765 596.194C187.389 597.442 185.206 598.689 185.206 598.065C184.894 597.442 176.476 589.023 174.293 588.4C172.111 587.464 172.734 581.54 172.734 581.54Z" fill="#2B3E6D"/>
<path d="M185.206 599.001V599.313C185.206 599.313 183.647 600.248 181.465 599.936C179.282 599.313 172.423 592.142 173.046 589.959C173.67 587.777 176.788 591.206 176.788 591.206C176.788 591.206 183.959 597.13 185.206 599.001Z" fill="#242650"/>
<path d="M175.54 355.489C202.666 403.193 183.958 572.498 180.841 574.992C176.787 578.422 170.24 576.551 170.24 576.551C170.24 576.551 89.7965 397.581 99.1504 354.553C108.192 312.149 166.186 338.964 175.54 355.489Z" fill="#2D305E"/>
<path opacity="0.2" d="M58.3052 380.744C60.7995 393.216 73.5831 403.817 85.7431 406.623C91.979 407.87 97.5913 407.247 103.515 405.064C108.504 402.882 112.869 401.011 118.482 401.323C122.223 401.635 125.653 403.193 129.083 404.752C130.953 405.688 133.136 406.311 135.318 406.623C138.436 406.935 141.554 406.935 144.672 406C147.79 405.376 149.973 403.505 152.467 401.635C156.832 398.205 161.509 394.775 167.433 395.71C171.487 396.334 175.228 398.517 177.722 401.946C183.023 408.494 184.27 417.536 185.829 425.643C187.7 435.62 188.947 445.598 190.194 455.575C190.194 415.042 186.765 375.132 175.852 355.801C168.68 343.329 134.383 325.245 114.116 334.91C110.687 336.469 107.88 338.964 105.386 342.082C98.8385 338.34 91.0436 336.158 82.9369 338.652C77.3246 340.211 71.7123 344.264 66.7236 351.436C65.1647 353.618 63.6057 356.424 62.0467 359.542C61.7349 360.166 61.4231 361.101 61.1113 362.037C59.8641 365.778 59.2406 372.326 58.3052 380.744Z" fill="#1A2326"/>
<path d="M108.504 189.614C93.2262 179.325 66.4119 171.842 66.4119 171.842L38.3504 98.5703L34.6088 104.183C34.6088 104.183 32.4263 143.469 47.3924 186.808C62.0468 229.212 103.204 217.988 103.204 217.988C103.204 217.988 118.482 196.474 108.504 189.614Z" fill="#FFBDB0"/>
<path d="M151.532 189.303C148.102 181.196 84.1844 176.519 84.1844 176.519C78.2603 184.937 87.3023 192.732 83.249 202.086C81.69 205.828 78.2603 208.946 77.9485 212.999C77.6367 215.182 77.9485 217.364 78.2603 219.547C101.333 230.46 125.029 233.889 125.029 233.889C125.029 233.889 156.209 200.215 151.532 189.303Z" fill="#2B3AC3"/>
<path d="M168.681 189.302C151.22 195.538 159.951 192.42 147.167 184.625C143.737 182.442 126.277 180.572 123.782 182.13C64.5414 222.976 57.3701 350.811 57.3701 350.811C57.3701 350.811 92.6029 403.505 181.153 360.477C181.153 360.477 207.655 210.192 168.681 189.302Z" fill="#2F40EA"/>
<path opacity="0.2" d="M185.829 268.186C185.205 274.734 187.388 281.282 187.388 287.829C187.388 294.377 184.27 299.989 181.776 305.914C180.528 308.72 179.593 311.526 178.969 314.644C178.658 317.45 178.658 320.256 178.658 323.374C178.658 328.675 178.969 334.287 177.099 339.587C175.228 344.576 171.175 348.006 166.809 350.812C163.068 353.618 158.703 355.801 155.897 359.854C153.714 363.596 153.09 367.961 151.843 372.014C160.885 369.208 170.551 365.778 180.84 360.478C180.84 360.478 190.506 305.914 189.57 258.209C187.388 260.703 186.141 264.445 185.829 268.186Z" fill="#1A2326"/>
<path d="M35.2324 91.7109C35.2324 91.7109 38.3504 92.9581 38.6622 93.8935C39.2857 96.0761 38.6622 98.2586 38.0386 98.5704C37.415 96.0761 35.2324 91.7109 35.2324 91.7109Z" fill="#FFBDB0"/>
<path d="M38.3502 95.4523C38.6619 95.1405 38.6619 94.5169 38.9737 94.2051C39.5973 96.3876 38.9737 98.2584 38.3502 98.882C38.3502 98.2584 38.0384 97.323 37.7266 96.6994C37.7266 96.0758 38.0384 95.764 38.3502 95.4523Z" fill="#FFBDB0"/>
<path d="M30.2436 100.129C29.9318 99.5057 29.6201 98.8821 29.3083 98.5703C29.3083 98.5703 29.3083 98.2585 28.9965 98.2585C28.9965 97.9467 28.6847 97.9467 28.6847 97.6349C28.6847 97.6349 27.1257 95.1405 27.7493 94.5169C28.3729 93.8934 28.9965 93.8934 28.9965 93.8934C28.9965 93.8934 28.6847 92.958 29.6201 92.6462C30.2436 92.3344 30.8672 92.6462 30.8672 92.6462C30.8672 92.6462 30.5554 92.0226 31.4908 91.399C32.4262 90.7754 33.0498 91.399 33.0498 91.399C33.0498 91.399 32.738 90.1518 34.297 90.4636C35.8559 90.4636 36.4795 92.3344 36.4795 92.6462C36.7913 92.958 36.7913 93.2698 37.1031 93.5816V93.8934C38.6621 100.441 43.339 108.236 43.0272 109.171C43.0272 109.171 37.1031 114.16 35.8559 113.536C35.2324 112.601 34.297 102.624 34.297 102.624C34.297 102.624 31.8026 102.312 30.2436 100.129Z" fill="#FFBDB0"/>
<path opacity="0.2" d="M29.3083 98.5703C29.3083 98.5703 29.3083 98.2585 28.9965 98.2585C28.9965 97.9467 28.6847 97.9467 28.6847 97.6349C28.6847 97.6349 27.1257 95.1405 27.7493 94.5169C28.3729 93.8934 28.9965 93.8934 28.9965 93.8934C28.9965 93.8934 28.6847 92.958 29.6201 92.6462C30.2436 92.3344 30.8672 92.6462 30.8672 92.6462C30.8672 92.6462 30.5554 92.0226 31.4908 91.399C32.4262 90.7754 33.0498 91.399 33.0498 91.399C33.0498 91.399 32.738 90.1518 34.297 90.4636C34.9206 90.4636 35.2324 90.7754 35.5441 91.0872C34.9206 91.0872 34.297 91.0872 33.9852 91.399L33.6734 91.7108C33.6734 91.7108 33.6734 92.0226 33.3616 92.0226C33.0498 92.3344 32.738 92.3344 32.4262 92.3344C32.1144 92.3344 31.8026 92.6462 31.4908 92.958C31.179 93.2698 31.179 93.5816 30.8672 93.5816C30.5554 93.8934 30.5554 94.2052 30.2436 94.2052C29.9318 94.2052 29.6201 94.5169 29.3083 94.5169C28.9965 94.8287 28.9965 95.4523 28.9965 96.0759C28.9965 96.3877 29.3083 96.6995 29.3083 97.0113C29.6201 97.3231 29.6201 97.9467 29.9319 98.2585C30.2436 98.8821 30.5554 99.8175 30.8672 100.441C30.8672 100.129 30.5554 100.129 30.5554 99.8175C29.9319 99.8175 29.6201 99.1939 29.3083 98.5703Z" fill="white"/>
<path d="M169.304 184.002C169.304 184.002 164.939 186.808 155.897 185.561C146.855 184.314 147.478 181.508 147.478 181.508C147.478 181.508 143.425 182.755 141.554 189.926C139.683 197.098 158.391 197.721 165.562 192.421C172.734 186.808 173.045 188.367 173.045 188.367L169.304 184.002Z" fill="#2D305E"/>
<path d="M358.875 178.39C358.875 178.39 355.445 178.079 354.822 178.702C353.263 180.261 352.639 182.444 352.951 183.067C354.822 180.885 358.875 178.39 358.875 178.39Z" fill="#FFBDB0"/>
<path d="M354.51 179.949C354.51 179.638 354.51 179.014 354.51 178.702C352.951 180.261 352.639 182.444 352.639 183.067C353.263 182.444 353.886 181.82 354.51 181.508C354.51 180.885 354.51 180.261 354.51 179.949Z" fill="#FFBDB0"/>
<path d="M358.875 188.056C359.499 187.744 360.122 187.433 360.746 187.121C360.746 187.121 361.058 187.121 361.058 186.809C361.369 186.809 361.369 186.497 361.681 186.497C361.681 186.497 364.176 185.25 364.176 184.315C364.176 183.379 363.552 183.379 363.552 183.379C363.552 183.379 364.176 182.756 363.864 182.132C363.552 181.508 362.928 181.508 362.928 181.508C362.928 181.508 363.552 180.885 362.928 180.261C362.617 179.326 361.681 179.326 361.681 179.326C361.681 179.326 362.305 178.39 361.058 177.767C359.81 177.143 358.252 178.39 357.94 178.39C357.628 178.702 357.316 178.702 357.004 179.014C357.004 179.014 356.693 179.014 356.693 179.326C352.016 184.315 341.103 187.744 340.791 188.991C340.791 188.991 342.038 194.604 343.597 194.292C344.844 193.668 354.822 188.056 354.822 188.056C354.822 188.056 356.693 189.303 358.875 188.056Z" fill="#FFBDB0"/>
<path opacity="0.2" d="M360.746 187.12C360.746 187.12 361.058 187.12 361.058 186.809C361.369 186.809 361.369 186.497 361.681 186.497C361.681 186.497 364.176 185.25 364.176 184.314C364.176 183.379 363.552 183.379 363.552 183.379C363.552 183.379 364.176 182.755 363.864 182.132C363.552 181.508 362.928 181.508 362.928 181.508C362.928 181.508 363.552 180.885 362.928 180.261C362.617 179.326 361.681 179.326 361.681 179.326C361.681 179.326 362.305 178.39 361.058 177.767C360.746 177.455 360.122 177.455 359.499 177.767C360.122 178.078 360.434 178.39 360.746 178.702V179.014C360.746 179.326 360.746 179.326 360.746 179.637C360.746 179.949 361.058 180.261 361.369 180.261C361.681 180.573 361.993 180.885 361.993 181.196C361.993 181.508 361.993 181.82 361.993 182.132C361.993 182.443 361.993 182.755 362.305 183.067C362.617 183.379 362.617 183.691 362.617 184.002C362.617 184.626 362.617 184.938 362.305 185.561C361.993 185.873 361.681 186.185 361.369 186.185C361.058 186.497 360.746 186.809 360.122 187.12C359.499 187.744 358.875 188.056 358.251 188.368C358.563 188.368 358.563 188.368 358.875 188.056C359.499 187.744 360.122 187.432 360.746 187.12Z" fill="white"/>
<path d="M352.951 182.131L270.326 203.333C270.326 203.333 229.792 205.827 200.795 202.398L203.29 242.931C221.997 238.254 251.618 235.448 269.702 233.577C301.817 230.147 353.263 194.603 355.445 188.367C354.198 184.937 352.951 182.131 352.951 182.131Z" fill="#FFBDB0"/>
<path d="M221.686 199.592C201.107 197.721 182.4 194.603 173.358 191.173C158.392 185.561 189.571 250.726 189.571 250.726C189.571 250.726 198.925 246.985 219.815 242.308C219.503 228.277 221.686 213.934 221.686 199.592Z" fill="#2B3AC3"/>
<path d="M380.701 241.372H373.842V234.513C373.842 233.889 373.218 233.266 372.595 233.266C371.971 233.266 371.347 233.889 371.347 234.513V241.372H364.488C363.864 241.372 363.241 241.996 363.241 242.619C363.241 242.931 363.241 243.243 363.553 243.555C363.864 243.867 364.176 243.867 364.488 243.867H371.347V250.726C371.347 251.038 371.347 251.35 371.659 251.661C371.971 251.973 372.283 251.973 372.595 251.973C373.218 251.973 373.842 251.35 373.842 250.726V243.867H380.701C381.325 243.867 381.948 243.243 381.948 242.619C381.948 241.684 381.325 241.372 380.701 241.372Z" fill="#BDDCFD"/>
<path d="M10.9128 262.886C4.98871 262.886 0 257.897 0 251.973C0 246.049 4.98871 241.061 10.9128 241.061C16.8369 241.061 21.8256 246.049 21.8256 251.973C21.5138 258.209 16.8369 262.886 10.9128 262.886ZM10.9128 245.426C7.17127 245.426 4.36512 248.544 4.36512 251.973C4.36512 255.403 7.48307 258.521 10.9128 258.521C14.6543 258.521 17.4605 255.403 17.4605 251.973C17.4605 248.544 14.3425 245.426 10.9128 245.426Z" fill="#BDDCFD"/>
<defs>
<linearGradient id="paint0_linear_168:1038" x1="41.6668" y1="74.9131" x2="359.34" y2="178.028" gradientUnits="userSpaceOnUse">
<stop stop-color="#BDDCFD"/>
<stop offset="1" stop-color="#5F98ED"/>
</linearGradient>
</defs>
</svg>
