<svg width="72" height="30" viewBox="0 0 72 30" fill="none" xmlns="http://www.w3.org/2000/svg">
<path d="M5.04424 11.7034C5.04424 10.9259 5.68224 10.6268 6.73894 10.6268C8.25421 10.6268 10.1682 11.0854 11.6835 11.9028V7.21745C10.0287 6.5595 8.39377 6.30031 6.73894 6.30031C2.69159 6.30031 0 8.41371 0 11.9427C0 17.4455 7.57632 16.5682 7.57632 18.9408C7.57632 19.8579 6.77882 20.157 5.66231 20.157C4.00748 20.157 1.89408 19.4791 0.219315 18.562V23.3072C2.07352 24.1047 3.94766 24.4436 5.66231 24.4436C9.80935 24.4436 12.6604 22.39 12.6604 18.8212C12.6405 12.8798 5.04424 13.9364 5.04424 11.7034ZM18.5221 2.31277L13.6573 3.34953L13.6374 19.3196C13.6374 22.2704 15.8505 24.4436 18.8012 24.4436C20.4361 24.4436 21.6324 24.1445 22.2903 23.7857V19.7383C21.6523 19.9975 18.5022 20.9146 18.5022 17.9639V10.886H22.2903V6.63925H18.5022L18.5221 2.31277ZM28.491 8.11464L28.172 6.63925H23.8654V24.0847H28.8498V12.2617C30.0262 10.7265 32.0199 11.0056 32.638 11.2249V6.63925C32 6.4 29.6673 5.96137 28.491 8.11464ZM33.8542 6.63925H38.8586V24.0847H33.8542V6.63925ZM33.8542 5.12399L38.8586 4.04735V0L33.8542 1.0567V5.12399ZM49.266 6.30031C47.3122 6.30031 46.0561 7.21745 45.3583 7.85545L45.0991 6.61931H40.7128V29.8667L45.6972 28.81L45.7171 23.1676C46.4349 23.686 47.4916 24.4237 49.2461 24.4237C52.815 24.4237 56.0648 21.5526 56.0648 15.2324C56.0449 9.45047 52.7551 6.30031 49.266 6.30031ZM48.0698 20.0374C46.8935 20.0374 46.1956 19.6187 45.7171 19.1003L45.6972 11.7034C46.2156 11.1252 46.9333 10.7265 48.0698 10.7265C49.8841 10.7265 51.1402 12.7601 51.1402 15.372C51.1402 18.0436 49.904 20.0374 48.0698 20.0374ZM71.7757 15.4318C71.7757 10.3277 69.3034 6.30031 64.5782 6.30031C59.833 6.30031 56.962 10.3277 56.962 15.3919C56.962 21.3931 60.3514 24.4237 65.2162 24.4237C67.5888 24.4237 69.3832 23.8854 70.7389 23.1277V19.1402C69.3832 19.8181 67.828 20.2368 65.8542 20.2368C63.9203 20.2368 62.2056 19.5589 61.9863 17.2062H71.7358C71.7358 16.947 71.7757 15.9103 71.7757 15.4318ZM61.9265 13.5377C61.9265 11.2847 63.3022 10.3477 64.5583 10.3477C65.7745 10.3477 67.0704 11.2847 67.0704 13.5377H61.9265Z" fill="#6772E5"/>
</svg>
