<svg width="32" height="32" viewBox="0 0 32 32" fill="none" xmlns="http://www.w3.org/2000/svg">
<path d="M16 0.311607C24.6645 0.311607 31.6884 7.33553 31.6884 16.0001C31.6884 24.6646 24.6645 31.6885 16 31.6885C7.33545 31.6885 0.311523 24.6646 0.311523 16.0001C0.311523 7.33553 7.33569 0.311607 16 0.311607Z" fill="white"/>
<path d="M16.0003 1.57007C23.9697 1.57007 30.4302 8.0306 30.4302 16C30.4302 23.9694 23.9697 30.43 16.0003 30.43C8.03084 30.43 1.57031 23.9694 1.57031 16C1.57031 8.0306 8.03084 1.57007 16.0003 1.57007Z" fill="#4A8CFF"/>
<path d="M6.58594 11.4791V18.2603C6.59196 19.7938 7.84443 21.028 9.37186 21.0217H19.2566C19.5376 21.0217 19.7637 20.7956 19.7637 20.5207V13.7394C19.7576 12.206 18.5052 10.9718 16.978 10.9781H7.09324C6.81226 10.9781 6.58618 11.2041 6.58618 11.4791H6.58594ZM20.3928 14.1244L24.4738 11.1432C24.8282 10.85 25.1029 10.9232 25.1029 11.4548V20.5452C25.1029 21.15 24.7668 21.0769 24.4738 20.8568L20.3928 17.8816V14.1244Z" fill="white"/>
</svg>
